<?xml version="1.0" encoding="UTF-8"?>
<svg xmlns="http://www.w3.org/2000/svg" version="1.1" xmlns:xlink="http://www.w3.org/1999/xlink" viewBox="0 0 1455.7 919.2">
  <defs>
    <style>
      .cls-1, .cls-2, .cls-3, .cls-4, .cls-5, .cls-6, .cls-7, .cls-8, .cls-9, .cls-10, .cls-11 {
        fill: none;
      }

      .cls-1, .cls-3, .cls-4, .cls-5, .cls-6, .cls-7, .cls-8, .cls-10, .cls-12, .cls-11 {
        stroke-miterlimit: 10;
      }

      .cls-1, .cls-3, .cls-6, .cls-12, .cls-11, .cls-13 {
        stroke: #181368;
      }

      .cls-1, .cls-10, .cls-12 {
        stroke-width: 4px;
      }

      .cls-14, .cls-12, .cls-13 {
        fill: #f5e2c2;
      }

      .cls-15, .cls-2 {
        font-family: DejaVuSans-Bold, 'DejaVu Sans';
        font-size: 267.7px;
        font-weight: 700;
      }

      .cls-15, .cls-2, .cls-16 {
        isolation: isolate;
      }

      .cls-15, .cls-17 {
        fill: #fff;
      }

      .cls-2 {
        stroke-width: 1.1px;
      }

      .cls-2, .cls-8 {
        stroke: #fff;
      }

      .cls-18 {
        fill: #181368;
      }

      .cls-3 {
        stroke-width: 7px;
      }

      .cls-4, .cls-5, .cls-7 {
        stroke: #000;
        stroke-width: 2px;
      }

      .cls-5 {
        stroke-dasharray: 0 0 7.8 7.8;
      }

      .cls-6 {
        stroke-width: 5.1px;
      }

      .cls-7 {
        stroke-dasharray: 0 0 8 8;
      }

      .cls-8 {
        stroke-width: 5px;
      }

      .cls-19 {
        fill: #fcc190;
      }

      .cls-10 {
        stroke: #ff6b01;
      }

      .cls-11 {
        stroke-width: 2.5px;
      }

      .cls-13 {
        stroke-miterlimit: 10;
        stroke-width: 3.4px;
      }

      .cls-20 {
        fill: #5660f3;
      }

      .cls-21 {
        fill: #ff6b01;
      }

      .cls-22 {
        clip-path: url(#clippath);
      }
    </style>
    <clipPath id="clippath">
      <ellipse class="cls-9" cx="269.9" cy="434.3" rx="111.5" ry="118"/>
    </clipPath>
  </defs>
  <!-- Generator: Adobe Illustrator 28.6.0, SVG Export Plug-In . SVG Version: 1.2.0 Build 709)  -->
  <g>
    <g id="katman_1">
      <path class="cls-20" d="M1073.4,74.4c57.9,16.5,111.1,41.9,169.2,56.6,43.1,11.4,89.7,17,129.2,39.6,23.2,12.9,45.9,32.6,55.4,57,23.6,64.7-58.2,90.5-104.6,111.8-26.2,12-51.6,26.1-71.7,46.6-34.8,33.5-46.7,88.4-71.3,125.3-28,41.5-64.2,22.1-88.8-17-21.7-34.6-31.8-77-37.3-116.3-4.5-33.1-4.9-56.3-8.9-80.7-1.7-9.5-4.1-18.7-9.3-26.7-8.5-12.7-21-19.8-34.8-27.3-18.9-9.8-39.3-18.3-60.5-27.9-44.9-20.8-93.4-45.1-125-81-16.6-19.3-24.2-43.5.5-58.8,31-17.8,72.3-17.8,112.3-19.2,48.8-.9,98.6,4.4,145.4,17.9h.2c0,0,0,0,0,0h0Z"/>
      <path class="cls-21" d="M303.1,588h-128.1c-70.7,0-128.1,66.9-128.1,149.4s-8.1,149.4,62.6,149.4h274.5c70.7,0,47.1-66.9,47.1-149.4s-57.3-149.4-128.1-149.4h0Z"/>
      <g>
        <path class="cls-14" d="M224,504.6l2.6,92.2c0,4.3,2.4,8,5.7,8.7l47.1,3.5c3.8.8,7.3-2.6,7.8-7.5l-.4-72.6-62.8-24.3h0Z"/>
        <path class="cls-11" d="M224,504.6l2.6,92.2c0,4.3,2.4,8,5.7,8.7l47.1,3.5c3.8.8,7.3-2.6,7.8-7.5l-.4-72.6-62.8-24.3h0Z"/>
      </g>
      <g>
        <ellipse class="cls-14" cx="269.9" cy="434.3" rx="111.5" ry="118"/>
        <g class="cls-22">
          <g>
            <circle class="cls-19" cx="358.4" cy="487.3" r="34"/>
            <circle class="cls-19" cx="244.4" cy="487.3" r="34"/>
          </g>
        </g>
        <ellipse class="cls-1" cx="269.9" cy="434.3" rx="111.5" ry="118"/>
      </g>
      <path class="cls-17" d="M279.4,486.1s22,24.3,43.9,2.3"/>
      <path class="cls-12" d="M626.1,552.5l-8.7-81c-.2-2.4,2.3-4,4.3-2.8l21,12.8-10.6-76.9c-.1-1,1.1-1.6,1.8-.9,6.5,6.1,25.2,26,25.8,52,22.9,1.1,44.5,2,56.4,2.6,5.3.2,9.2,4.8,8.7,10.1l-10.4,103.2-88.3-19.1h0Z"/>
      <circle class="cls-12" cx="162.2" cy="420.2" r="26.3"/>
      <circle class="cls-14" cx="191.4" cy="459.9" r="21.1"/>
      <ellipse class="cls-13" cx="163.2" cy="425.8" rx="0" ry="16.5" transform="translate(-286.2 348.3) rotate(-59.2)"/>
      <g>
        <ellipse class="cls-18" cx="256.3" cy="432.8" rx="7.1" ry="11.9"/>
        <ellipse class="cls-18" cx="351.3" cy="432.8" rx="7.1" ry="11.9"/>
        <path class="cls-18" d="M272.8,410.8c-11.4-1.1-19.7.2-29.2,6.8-1.3.8-2.5,1.8-3.9,2.7l-.2-.2c1-1.2,2-2.5,3-3.6.6-.6,2-1.9,2.6-2.4.9-.7,1.9-1.5,2.9-2.1,1.2-.7,2.9-1.7,4.2-2.1,6.6-2.7,14.3-2.2,20.8.7v.3h-.1Z"/>
        <path class="cls-18" d="M339.4,410.5c9.3-8.2,24.8-5.1,31.3,5.1.9,1.4,1.6,2.9,2.2,4.4l-.2.2c-1.5-1.7-3.1-3.6-4.8-5.1-5.2-4.7-12.3-7.1-19.3-6.5-3.1.3-6.2.9-9,2.2v-.3h-.1Z"/>
        <path class="cls-18" d="M306.3,425.7c.5,6.7-.3,13.7.4,20.4.5,5.8,1.8,11.5,3.7,17,1.6,3.2-.7,6.9-4.3,6.4-.5,0-2-.2-2.6-.2-2.3-.3-4.6-.5-6.9-.8v-.2c2.4,0,8,0,10.3,0,1.1-.2,2-1,2.3-2.1.3-1.1-.3-2.1-.7-3.2-1.2-3.2-2.2-6.5-2.9-9.9-1.9-9.1-.4-18.3.5-27.4h.2s0,0,0,0h0Z"/>
      </g>
      <path class="cls-18" d="M135.8,886.8c-.7-26.2.3-53.6,1.5-79.8,1.4-26.3,3-53.5,6.2-79.6.7,26.2-.3,53.6-1.5,79.8-1.4,26.3-3,53.5-6.2,79.6h0Z"/>
      <path class="cls-21" d="M352.4,600.2c40.6,26.3,134.2,77.3,180.5,54,34.7-17.2,59.3-61.7,74.2-96.5,2.6-6.2,5-12.4,7.1-18.7l.6-1.7,112.2,34.5c-.4,1.3-1.2,3.7-1.6,5-10.4,29.7-24,57.8-41,84.4-36.7,57.9-94.7,107.8-167.6,109-75.4,1.4-151.5-40.5-209.8-84.8-4.2-3.2-8.6-6.9-12.7-10.2l58.1-74.9h0Z"/>
      <path class="cls-14" d="M223.4,588l18.8,14.2c10.8,8.2,24.5,7.7,35-1.1l15.4-13.1h-69.1Z"/>
      <path class="cls-21" d="M292.6,588l-1.5,34.8h-72.4l4.8-34.8,18.1,13.7c11.2,8.5,25.5,8,36.2-1.2l14.8-12.6h0Z"/>
      <path class="cls-1" d="M670.3,499.5l-4.2-.4c-3.4-.3-6.1-3.2-6.1-6.7l-.2-36.6,20.5.9-2.6,36.5c-.3,3.8-3.6,6.6-7.4,6.2h0Z"/>
      <path class="cls-1" d="M692.7,501.7l-8.5-.8c-3.9-.4-6.8-3.8-6.5-7.8l2.6-36.4,24.1,1.1-3.7,37.4c-.4,4-3.9,6.9-7.9,6.5h0Z"/>
      <path class="cls-1" d="M714.6,503.8l-7.9-.8c-3.7-.4-6.4-3.7-6.1-7.4l3.8-37.8,12.5.6c4.9.2,8.6,4.5,8.1,9.4l-3,30c-.4,3.7-3.7,6.4-7.4,6h0Z"/>
      <circle class="cls-18" cx="198.7" cy="331.3" r="74.2"/>
      <circle class="cls-18" cx="286.7" cy="277.7" r="74.2"/>
      <circle class="cls-18" cx="314.9" cy="316.3" r="74.2"/>
      <circle class="cls-18" cx="389.1" cy="313.2" r="74.2"/>
      <circle class="cls-8" cx="139.7" cy="443.1" r="16"/>
      <rect class="cls-20" x="535.2" y="349.6" width="284.9" height="154.8" rx="14.5" ry="14.5"/>
      <path class="cls-10" d="M774.7,498.9h-194c0-19.8-16.1-35.9-35.9-35.9v-72c19.8,0,35.9-16.1,35.9-35.9h194c0,19.8,16.1,35.9,35.9,35.9v72c-19.8,0-35.9,16.1-35.9,35.9Z"/>
      <line class="cls-3" x1="605.1" y1="373" x2="743.3" y2="373"/>
      <line class="cls-3" x1="566.2" y1="404.8" x2="704.4" y2="404.8"/>
      <line class="cls-3" x1="566.2" y1="420.6" x2="704.4" y2="420.6"/>
      <line class="cls-3" x1="566.2" y1="436.4" x2="704.4" y2="436.4"/>
      <line class="cls-6" x1="716.2" y1="452.1" x2="788.5" y2="452.1"/>
      <g>
        <polyline class="cls-4" points="886.6 82.1 886.6 78.2 890.5 78.2"/>
        <line class="cls-5" x1="898.3" y1="78.2" x2="1314.1" y2="78.2"/>
        <polyline class="cls-4" points="1318 78.2 1321.9 78.2 1321.9 82.1"/>
        <line class="cls-7" x1="1321.9" y1="90.1" x2="1321.9" y2="357.2"/>
        <polyline class="cls-4" points="1321.9 361.2 1321.9 365.2 1318 365.2"/>
        <line class="cls-5" x1="1310.2" y1="365.2" x2="894.4" y2="365.2"/>
        <polyline class="cls-4" points="890.5 365.2 886.6 365.2 886.6 361.2"/>
        <line class="cls-7" x1="886.6" y1="353.2" x2="886.6" y2="86.1"/>
      </g>
      <g>
        <g class="cls-16">
          <g class="cls-16">
            <text class="cls-15" transform="translate(953.3 224.6) rotate(30.8) scale(1 1)"><tspan x="0" y="0">!!</tspan></text>
          </g>
        </g>
        <g class="cls-16">
          <g class="cls-16">
            <text class="cls-2" transform="translate(965.7 239.3) rotate(30.8) scale(1 1)"><tspan x="0" y="0">!!</tspan></text>
          </g>
        </g>
      </g>
    </g>
  </g>
</svg>