<?xml version="1.0" encoding="UTF-8"?>
<svg xmlns="http://www.w3.org/2000/svg" version="1.1" xmlns:xlink="http://www.w3.org/1999/xlink" viewBox="0 0 1876.2 1382">
  <defs>
    <style>
      .cls-1, .cls-2, .cls-3, .cls-4, .cls-5, .cls-6, .cls-7, .cls-8 {
        fill: none;
      }

      .cls-1, .cls-2, .cls-3, .cls-4, .cls-9, .cls-6 {
        stroke-miterlimit: 10;
      }

      .cls-1, .cls-9 {
        stroke-width: 4px;
      }

      .cls-1, .cls-9, .cls-6, .cls-10, .cls-11 {
        stroke: #181368;
      }

      .cls-12, .cls-9, .cls-10, .cls-11 {
        fill: #f5e2c2;
      }

      .cls-13 {
        fill: #181368;
      }

      .cls-14 {
        fill: #febf8c;
      }

      .cls-15, .cls-16, .cls-17 {
        fill: #fff;
      }

      .cls-15, .cls-17, .cls-18, .cls-7, .cls-8 {
        isolation: isolate;
      }

      .cls-15, .cls-17, .cls-7, .cls-8 {
        font-family: DejaVuSans-Bold, 'DejaVu Sans';
        font-weight: 700;
      }

      .cls-15, .cls-7 {
        font-size: 306.9px;
      }

      .cls-2, .cls-3, .cls-4 {
        stroke: #000;
        stroke-width: 2px;
      }

      .cls-3 {
        stroke-dasharray: 0 0 7.8 7.8;
      }

      .cls-4 {
        stroke-dasharray: 0 0 8 8;
      }

      .cls-6 {
        stroke-width: 2.5px;
      }

      .cls-10 {
        stroke-miterlimit: 10;
        stroke-width: 3.4px;
      }

      .cls-19 {
        fill: #cdb3b7;
      }

      .cls-20 {
        clip-path: url(#clippath-1);
      }

      .cls-17, .cls-8 {
        font-size: 392.1px;
      }

      .cls-7 {
        stroke-width: 1.3px;
      }

      .cls-7, .cls-8 {
        stroke: #fff;
      }

      .cls-21 {
        fill: #5660f3;
      }

      .cls-22 {
        fill: #ff6b01;
      }

      .cls-23 {
        fill: #2276fd;
      }

      .cls-11 {
        stroke-miterlimit: 10;
        stroke-width: 3.4px;
      }

      .cls-24 {
        fill: #312b2f;
      }

      .cls-25 {
        clip-path: url(#clippath);
      }

      .cls-8 {
        stroke-width: 1.7px;
      }
    </style>
    <clipPath id="clippath">
      <ellipse class="cls-5" cx="1355.8" cy="871.4" rx="111.5" ry="118"/>
    </clipPath>
    <clipPath id="clippath-1">
      <ellipse class="cls-5" cx="398.5" cy="871.4" rx="111.5" ry="118"/>
    </clipPath>
  </defs>
  <!-- Generator: Adobe Illustrator 28.6.0, SVG Export Plug-In . SVG Version: 1.2.0 Build 709)  -->
  <g>
    <g id="katman_1">
      <path class="cls-21" d="M1390.2,264.1c57.6-17.6,116-25,172.9-44.1,42.4-13.8,84.6-34.3,130-36.8,26.5-1.7,56.2,2.5,77.4,17.9,54.9,41.6.1,107.6-27.3,150.6-15.5,24.2-29.2,49.9-35,78-11.1,47,8.7,99.6,8,144-1.1,50-42,53.4-83.8,33.8-37-17.3-68.5-47.4-94.4-77.5-21.8-25.3-34.7-44.7-51.2-63-6.6-7-13.6-13.5-22.3-17.4-14-6.1-28.4-5.3-44-4-21.2,2-42.9,5.9-66,9.3-49,6.8-103,12.7-149-.3-24.4-7.2-43.9-23.5-31.4-49.7,16.4-31.7,51.1-54.2,83.9-77,40.6-27.2,85.3-49.7,131.9-63.8h.2c0,0,0,0,0,0Z"/>
      <g>
        <path class="cls-23" d="M1196.9,704.8l-86.7-40.9c-154.9,19.8-183.5-44.3-183.5-99h0c0-54.7,44.3-99,99-99h96c54.7,0,99,44.3,99,99h0c0,54.7,30.9,139.9-23.8,139.9h0Z"/>
        <circle class="cls-24" cx="998" cy="563.5" r="16.8"/>
        <circle class="cls-24" cx="1069.1" cy="563.5" r="16.8"/>
        <circle class="cls-24" cx="1140.2" cy="563.5" r="16.8"/>
      </g>
      <g>
        <path class="cls-22" d="M629.3,533.8l86.7-40.9c154.9,19.8,183.5-44.3,183.5-99h0c0-54.7-44.3-99-99-99h-96c-54.7,0-99,44.3-99,99h0c0,54.7-30.9,139.9,23.8,139.9h0Z"/>
        <circle class="cls-24" cx="828.2" cy="392.4" r="16.8" transform="translate(308.2 1147) rotate(-80.8)"/>
        <circle class="cls-24" cx="757.1" cy="392.4" r="16.8"/>
        <circle class="cls-24" cx="686" cy="392.4" r="16.8"/>
      </g>
      <g>
        <path class="cls-23" d="M1171.1,302.3l-86.7-40.9c-154.9,19.8-183.5-44.3-183.5-99h0c0-54.7,44.3-99,99-99h96c54.7,0,99,44.3,99,99h0c0,54.7,30.9,139.9-23.8,139.9h0Z"/>
        <circle class="cls-24" cx="972.3" cy="160.9" r="16.8"/>
        <circle class="cls-24" cx="1043.4" cy="160.9" r="16.8"/>
        <circle class="cls-24" cx="1114.5" cy="160.9" r="16.8"/>
      </g>
      <path class="cls-21" d="M1322.6,1025h128.1c70.7,0,128.1,66.9,128.1,149.4s8.1,149.4-62.6,149.4h-274.5c-70.7,0-47.1-66.9-47.1-149.4s57.3-149.4,128.1-149.4h0Z"/>
      <g>
        <path class="cls-12" d="M1401.6,941.6l-2.6,92.2c0,4.3-2.4,8-5.7,8.7l-47.1,3.5c-3.8.8-7.3-2.6-7.8-7.5l.4-72.6,62.8-24.3h0Z"/>
        <path class="cls-6" d="M1401.6,941.6l-2.6,92.2c0,4.3-2.4,8-5.7,8.7l-47.1,3.5c-3.8.8-7.3-2.6-7.8-7.5l.4-72.6,62.8-24.3h0Z"/>
      </g>
      <g>
        <ellipse class="cls-12" cx="1355.8" cy="871.4" rx="111.5" ry="118"/>
        <g class="cls-25">
          <g>
            <circle class="cls-19" cx="1267.3" cy="924.4" r="34"/>
            <circle class="cls-19" cx="1381.3" cy="924.4" r="34"/>
          </g>
        </g>
        <ellipse class="cls-1" cx="1355.8" cy="871.4" rx="111.5" ry="118"/>
      </g>
      <path class="cls-13" d="M1346.2,923.1c-10.6,15.7-32.5,19.1-43.9,2.3,15.9,11.3,28.7,8.2,43.9-2.3h0Z"/>
      <path class="cls-13" d="M1453.8,876.6l20.2-34.8c11.4-19.7,10.9-43-1.4-62.3h0c-18.8-29.5-53.2-49.2-92-52.7l-23.9-2.2-83.1-3.2c-10.6-.4-21.2,2.1-30,7.2h0c-7.4,4.3-9.5,12.9-4.5,19.4h0c0,0-6.2,4.1-6.2,4.1-15.3,9.9-16.1,29.5-1.5,40.3l3.2,2.4-2.4,5.1c-3.6,7.7,1.4,16.3,10.6,18.6h0c9.4,2.3,19.4,2.7,29.1,1l15.1-2.6c2.6-.4,5.3.2,7.2,1.9h0c6.6,5.7,16.1,8.2,25.2,6.7l41.5-6.8c23.1-3.8,46.3,5.8,57.4,23.6l21.6,34.6c3,4.8,11.1,4.7,14-.2h0s0,0,0,0Z"/>
      <path class="cls-9" d="M1038.9,908.6l32.9-74.5c1-2.2-1-4.5-3.3-4l-23.9,5.8,33.6-70c.4-.9-.5-1.9-1.4-1.4-8,3.8-31.9,17.1-40.5,41.7-33.4-9-63.9-17.3-63.9-17.3l-23.5,110.9,89.9,8.8h0Z"/>
      <circle class="cls-9" cx="1463.4" cy="857.2" r="26.3"/>
      <circle class="cls-12" cx="1434.2" cy="896.9" r="21.1"/>
      <ellipse class="cls-11" cx="1462.4" cy="862.7" rx="16.5" ry="0" transform="translate(-235.5 869.3) rotate(-30.8)"/>
      <g>
        <ellipse class="cls-13" cx="1369.4" cy="869.8" rx="7.1" ry="11.9"/>
        <ellipse class="cls-13" cx="1274.3" cy="869.8" rx="7.1" ry="11.9"/>
        <path class="cls-13" d="M1352.6,838.7c10-11.7,30.9-5.4,33.6,9.6l-.4.3c-1.7-2-3.7-4.1-5.7-5.8-6.3-5.1-15-7-22.9-5-1.5.3-3,.8-4.4,1.4l-.2-.4h0Z"/>
        <path class="cls-13" d="M1286,839.1c-6.9.6-12.7,1-18.9,3.1-5,1.6-9.2,4.2-14.1,6.3l-.4-.3c1-1.2,1.9-2.5,3-3.7.6-.6,1.9-1.9,2.6-2.4,2.8-2.2,6-4.1,9.4-5.1,6.1-1.8,12.9-1.1,18.6,1.6l-.2.4h0Z"/>
        <path class="cls-13" d="M1319.7,862.7c2.9,14.3,1.6,29-1.6,43.1l-3.4-3.8c3.6.5,7.2,1.1,10.7,2.1,1.2.3,2.4.7,3.6,1.1v.5c-3.6,0-10.7.2-14.3.2h-.4v-.4c.7-6.3,1.6-15.2,2.4-21.4.7-6.3,1.8-15.2,2.6-21.4h.5c0,0,0,0,0,0Z"/>
      </g>
      <path class="cls-13" d="M1489.8,1323.9c-3.2-26.1-4.8-53.3-6.2-79.6-1.2-26.3-2.1-53.6-1.4-79.8,3.2,26.1,4.8,53.3,6.2,79.6,1.1,26.3,2.1,53.6,1.4,79.8h0Z"/>
      <path class="cls-21" d="M1324.3,1117.5c-65.3,47.3-164.7,102.2-248.1,90.2-136.5-21.3-147.5-202.4-139.3-311.7l.5-5.2,116.7,12.4-.3,2.9-.3,3.5c-3.1,45.2-3,92.1,6.9,136.2,4.4,17.5,10.7,38.5,23.8,49.2,2.6,2,5.7,3.1,9.6,3.9,43,7.5,111.9-24.8,151-45.1,8.5-4.5,17.4-9.5,25.7-14.3l53.8,78.1h0Z"/>
      <path class="cls-12" d="M1402.2,1025l-18.8,14.2c-10.8,8.2-24.6,7.7-34.9-1.1l-15.4-13.1h69.1Z"/>
      <path class="cls-21" d="M1333.1,1025l1.5,34.8h72.4l-4.8-34.8-18.1,13.7c-11.2,8.5-25.4,8-36.2-1.2l-14.8-12.6h0Z"/>
      <path class="cls-1" d="M1013.1,844.7l4.1.9c3.4.7,6.8-1.2,7.8-4.5l11.4-34.8-19.8-5.4-8.7,35.6c-.9,3.7,1.4,7.4,5.1,8.2h0Z"/>
      <path class="cls-1" d="M991,839.9l8.4,1.8c3.8.8,7.7-1.6,8.6-5.4l8.6-35.4-23.3-6.3-7.8,36.7c-.8,3.9,1.7,7.8,5.6,8.6h0Z"/>
      <path class="cls-1" d="M969.6,835.3l7.8,1.7c3.7.8,7.2-1.5,8-5.2l7.9-37.2-20.8-5.6-8.1,38.3c-.8,3.6,1.5,7.2,5.2,8h0Z"/>
      <path class="cls-22" d="M431.7,1025h-128.1c-70.7,0-128.1,66.9-128.1,149.4s-8.1,149.4,62.6,149.4h274.5c70.7,0,47.1-66.9,47.1-149.4s-57.3-149.4-128.1-149.4h0Z"/>
      <g>
        <path class="cls-12" d="M352.7,941.6l2.6,92.2c0,4.3,2.4,8,5.7,8.7l47.1,3.5c3.8.8,7.3-2.6,7.8-7.5l-.4-72.6-62.8-24.3h0Z"/>
        <path class="cls-6" d="M352.7,941.6l2.6,92.2c0,4.3,2.4,8,5.7,8.7l47.1,3.5c3.8.8,7.3-2.6,7.8-7.5l-.4-72.6-62.8-24.3h0Z"/>
      </g>
      <g>
        <ellipse class="cls-12" cx="398.5" cy="871.4" rx="111.5" ry="118"/>
        <g class="cls-20">
          <g>
            <circle class="cls-14" cx="487" cy="924.4" r="34"/>
            <circle class="cls-14" cx="373" cy="924.4" r="34"/>
          </g>
        </g>
        <ellipse class="cls-1" cx="398.5" cy="871.4" rx="111.5" ry="118"/>
      </g>
      <path class="cls-16" d="M408.1,923.1s22,24.3,43.9,2.3"/>
      <path class="cls-9" d="M754.8,989.6l-8.7-81c-.2-2.4,2.3-4,4.3-2.8l21,12.8-10.6-76.9c-.1-1,1-1.6,1.8-.9,6.5,6.1,25.2,26,25.8,52,22.9,1.1,44.5,2.1,56.4,2.6,5.3.2,9.2,4.8,8.7,10.1l-10.4,103.2-88.3-19.1h0Z"/>
      <circle class="cls-9" cx="290.8" cy="857.2" r="26.3" transform="translate(-305.9 176.5) rotate(-22.5)"/>
      <circle class="cls-12" cx="320.1" cy="896.9" r="21.1" transform="translate(-597.2 1152.6) rotate(-85.9)"/>
      <ellipse class="cls-10" cx="291.9" cy="862.8" rx="0" ry="16.5" transform="translate(-598.9 672.4) rotate(-59.2)"/>
      <g>
        <ellipse class="cls-13" cx="384.9" cy="869.8" rx="7.1" ry="11.9"/>
        <ellipse class="cls-13" cx="480" cy="869.8" rx="7.1" ry="11.9"/>
        <path class="cls-13" d="M401.5,847.8c-11.4-1.1-19.7.2-29.2,6.8-1.3.8-2.5,1.8-3.9,2.7l-.2-.2c1-1.2,2-2.5,3-3.6.6-.6,2-1.9,2.6-2.4.9-.7,1.9-1.4,2.9-2.1,1.2-.7,2.9-1.7,4.2-2.1,6.6-2.7,14.3-2.2,20.8.7v.3h-.1Z"/>
        <path class="cls-13" d="M468.1,847.5c9.3-8.2,24.8-5.1,31.3,5.1.9,1.4,1.6,2.9,2.2,4.4l-.2.2c-1.5-1.7-3.1-3.6-4.8-5.1-5.2-4.7-12.3-7.1-19.3-6.6-3.1.3-6.2.9-9,2.2v-.3h-.1Z"/>
        <path class="cls-13" d="M435,862.7c.5,6.7-.3,13.7.4,20.4.5,5.8,1.8,11.6,3.7,17,1.6,3.2-.7,6.9-4.3,6.4-.5,0-2-.2-2.6-.2-2.3-.3-4.6-.4-6.9-.8v-.2c2.4,0,8,0,10.3,0,1.1-.2,2-1,2.3-2.1.3-1.1-.3-2.1-.7-3.2-1.2-3.2-2.2-6.5-2.9-9.9-1.9-9.1-.4-18.3.5-27.4h.2s0,0,0,0h0Z"/>
      </g>
      <path class="cls-13" d="M264.5,1323.9c-.6-26.2.3-53.6,1.5-79.8,1.4-26.3,3-53.5,6.2-79.6.7,26.2-.3,53.6-1.5,79.8-1.4,26.3-3,53.5-6.2,79.6h0Z"/>
      <path class="cls-22" d="M494.4,1043.5c32.5,35.6,68.8,70.7,109.9,95.1,14.7,8.2,31,16.3,46.5,15.5,16.5-2.3,32.8-25.8,41.8-40.5,22.9-39,37.3-83.6,48.1-127.6l.8-3.4.6-2.9,114.9,23.8c-10.7,47.6-26.2,93.7-48.1,137.4-44.9,90.3-121,155.5-225.2,108.4-63.8-29.4-116.9-85.5-158.7-140-1.4-1.9-4.3-5.8-5.7-7.7l75-57.9h0Z"/>
      <path class="cls-12" d="M352.1,1025l18.8,14.2c10.8,8.2,24.5,7.7,35-1.1l15.4-13.1h-69.1Z"/>
      <path class="cls-22" d="M421.2,1025l-1.5,34.8h-72.4l4.8-34.8,18.1,13.7c11.2,8.5,25.5,8,36.2-1.2l14.8-12.6h0Z"/>
      <path class="cls-1" d="M799,936.5l-4.2-.4c-3.4-.3-6.1-3.2-6.1-6.7l-.2-36.6,20.5.9-2.6,36.6c-.3,3.8-3.6,6.6-7.4,6.2Z"/>
      <path class="cls-1" d="M821.4,938.7l-8.5-.8c-3.9-.4-6.8-3.8-6.5-7.8l2.6-36.4,24.1,1.1-3.7,37.4c-.4,4-3.9,6.9-7.9,6.5h0Z"/>
      <path class="cls-1" d="M843.3,940.8l-7.9-.8c-3.7-.4-6.4-3.7-6.1-7.4l3.8-37.8,12.5.6c4.9.2,8.6,4.5,8.1,9.4l-3,30c-.4,3.7-3.7,6.4-7.4,6h0Z"/>
      <circle class="cls-22" cx="327.4" cy="768.3" r="74.2"/>
      <circle class="cls-22" cx="415.4" cy="714.7" r="74.2"/>
      <circle class="cls-22" cx="443.6" cy="753.4" r="74.2"/>
      <circle class="cls-22" cx="278" cy="848.4" r="74.2" transform="translate(-518.5 445) rotate(-45)"/>
      <circle class="cls-22" cx="243" cy="941.6" r="74.2" transform="translate(-594.6 447.6) rotate(-45)"/>
      <circle class="cls-22" cx="155.4" cy="952.5" r="63.7"/>
      <circle class="cls-22" cx="91.7" cy="872.8" r="51.9" transform="translate(-48.1 6.4) rotate(-3.2)"/>
      <circle class="cls-22" cx="75.8" cy="816.1" r="33.2" transform="translate(-742.4 864.7) rotate(-88.1)"/>
      <circle class="cls-22" cx="96.1" cy="780.3" r="23.7"/>
      <circle class="cls-22" cx="517.8" cy="750.2" r="74.2"/>
      <path class="cls-13" d="M287,871.4c-3.9-54.7,33.9-108.3,88.2-120,56-12.5,110.8,21.5,128.8,75.1,4.9,14.5,7,29.8,6,44.9-1-15-4.3-29.7-10.1-43.3-23.4-56.2-86.3-86.4-143.3-61.4-41,17.8-67.1,60.6-69.5,104.7h0,0Z"/>
      <path class="cls-21" d="M538.7,444.6c-11,39.8-53.3,55.5-91.8,60.2-29.7,3.4-65.2,3.7-80.4-25.1-6.8-13-8.2-28.2-10.3-42.7-3.2-29.6-15.3-54.3-44-65.8-50.5-21.4-122.1,1.4-167.9-12.2-15-4.4-27.6-13.7-36.8-26.5-10.9-15.2-21.5-39.2-14.2-56.8,13.5-28.1,77.6-18.5,113.5-24.1,6.8-.8,13.5-1.9,20-3.4,11.2-2.6,22.1-6.4,32.2-11.8,19.6-10.2,31.8-25.6,44.4-41.6,14.4-17.9,35-23,58.4-22.5,15.8.2,32.6,2.7,48.1,6.6,11.5,2.9,22.8,6.6,33.8,11.1,26.5,11,51.8,25.8,81.1,23.7,14.8-.6,29.5-4.7,43.9-7.6,20.9-4.7,46.1-2.8,46.3,23.2-.9,27.2-23.8,50.5-44.8,65.8-19.5,14.5-45.5,21.9-64.7,34.7-11.8,8.1-24.1,21.1-21.6,36.3,4.2,20.6,33.2,22.4,46.3,38.6,9.8,10.7,12.4,25.9,8.8,39.9h0c0,.1,0,0,0,0h0Z"/>
      <g>
        <polyline class="cls-2" points="115.1 152.3 115.1 148.4 119 148.4"/>
        <line class="cls-3" x1="126.8" y1="148.4" x2="542.6" y2="148.4"/>
        <polyline class="cls-2" points="546.5 148.4 550.4 148.4 550.4 152.3"/>
        <line class="cls-4" x1="550.4" y1="160.3" x2="550.4" y2="427.5"/>
        <polyline class="cls-2" points="550.4 431.5 550.4 435.4 546.5 435.4"/>
        <line class="cls-3" x1="538.7" y1="435.4" x2="122.9" y2="435.4"/>
        <polyline class="cls-2" points="119 435.4 115.1 435.4 115.1 431.5"/>
        <line class="cls-4" x1="115.1" y1="423.5" x2="115.1" y2="156.3"/>
      </g>
      <g>
        <g class="cls-18">
          <g class="cls-18">
            <text class="cls-15" transform="translate(341.3 443.2) rotate(-14.2)"><tspan x="0" y="0">!</tspan></text>
          </g>
        </g>
        <g class="cls-18">
          <g class="cls-18">
            <text class="cls-7" transform="translate(355.3 459.7) rotate(-14.2)"><tspan x="0" y="0">!</tspan></text>
          </g>
        </g>
      </g>
      <g>
        <polyline class="cls-2" points="1396.1 269.6 1396.1 265.7 1400 265.7"/>
        <line class="cls-3" x1="1407.8" y1="265.7" x2="1823.6" y2="265.7"/>
        <polyline class="cls-2" points="1827.5 265.7 1831.4 265.7 1831.4 269.6"/>
        <line class="cls-4" x1="1831.4" y1="277.6" x2="1831.4" y2="544.8"/>
        <polyline class="cls-2" points="1831.4 548.8 1831.4 552.7 1827.5 552.7"/>
        <line class="cls-3" x1="1819.7" y1="552.7" x2="1403.9" y2="552.7"/>
        <polyline class="cls-2" points="1400 552.7 1396.1 552.7 1396.1 548.8"/>
        <line class="cls-4" x1="1396.1" y1="540.8" x2="1396.1" y2="273.6"/>
      </g>
      <g>
        <g class="cls-18">
          <g class="cls-18">
            <text class="cls-17" transform="translate(1442.2 426.5) rotate(30.8) scale(1 1)"><tspan x="0" y="0">?</tspan></text>
          </g>
        </g>
        <g class="cls-18">
          <g class="cls-18">
            <text class="cls-8" transform="translate(1460.4 448.1) rotate(30.8) scale(1 1)"><tspan x="0" y="0">?</tspan></text>
          </g>
        </g>
      </g>
    </g>
  </g>
</svg>