<?xml version="1.0" encoding="UTF-8"?>
<svg xmlns="http://www.w3.org/2000/svg" version="1.1" viewBox="0 0 1502.2 1008">
  <defs>
    <style>
      .cls-1, .cls-2 {
        fill: #f5e2c2;
      }

      .cls-3 {
        fill: #e11f9f;
      }

      .cls-4 {
        stroke-linejoin: round;
      }

      .cls-4, .cls-5, .cls-6, .cls-7, .cls-8 {
        fill: none;
      }

      .cls-4, .cls-6, .cls-9 {
        stroke-linecap: round;
      }

      .cls-4, .cls-7 {
        stroke: #fff;
        stroke-width: 4px;
      }

      .cls-10 {
        fill: #110a2c;
      }

      .cls-11 {
        fill: #381772;
      }

      .cls-5, .cls-12, .cls-6, .cls-7, .cls-13, .cls-14, .cls-15, .cls-8, .cls-9, .cls-16, .cls-2, .cls-17, .cls-18, .cls-19 {
        stroke-miterlimit: 10;
      }

      .cls-5, .cls-12, .cls-6, .cls-13, .cls-14, .cls-8, .cls-9, .cls-16, .cls-17, .cls-18, .cls-19 {
        stroke: #2d1260;
      }

      .cls-20 {
        letter-spacing: 0em;
      }

      .cls-20, .cls-21, .cls-22 {
        isolation: isolate;
      }

      .cls-20, .cls-22 {
        fill: #f7efe7;
        font-family: SegoePrint-Bold, 'Segoe Print';
        font-size: 74.2px;
        font-weight: 700;
      }

      .cls-12 {
        fill: #49208a;
      }

      .cls-12, .cls-19 {
        stroke-width: .1px;
      }

      .cls-23 {
        fill: #190644;
      }

      .cls-6 {
        stroke-width: 1.5px;
      }

      .cls-24 {
        fill: #f7a829;
      }

      .cls-13, .cls-25, .cls-15 {
        fill: #5660f3;
      }

      .cls-13, .cls-14, .cls-15, .cls-8, .cls-9, .cls-18 {
        stroke-width: 2px;
      }

      .cls-26 {
        fill: #fec28e;
      }

      .cls-27, .cls-18 {
        fill: #2d1260;
      }

      .cls-28 {
        fill: #af057b;
      }

      .cls-14, .cls-9 {
        fill: #f7e3c8;
      }

      .cls-22 {
        letter-spacing: 0em;
      }

      .cls-15 {
        stroke: #5660f3;
      }

      .cls-16 {
        fill: #fffeff;
      }

      .cls-2 {
        stroke: #190644;
      }

      .cls-29, .cls-19 {
        fill: #f7a828;
      }

      .cls-17 {
        fill: #181368;
        stroke-width: .5px;
      }

      .cls-30 {
        fill: #ff6b01;
      }

      .cls-31 {
        fill: #fb985e;
      }
    </style>
  </defs>
  <!-- Generator: Adobe Illustrator 28.6.0, SVG Export Plug-In . SVG Version: 1.2.0 Build 709)  -->
  <g>
    <g id="katman_1">
      <path class="cls-29" d="M835.6,218.8c105.9-7.4,72.7-7.6,156.2-47.2,16.4-7.8,87.9-68.9,102.6-79.6,15.2-11,9.1-11.9,27.7-14.5,37.1-5.2,78.2-9.5,109.2,11.6,37.4,25.5,44.9,77.1,71.9,113.4,15.8,21.2,38.6,37,64,44.4,20.2,5.9,42.7,6.8,59.6,19.4,28.9,21.6,25.2,70.7-2.2,94.1-9.4,8-20.7,13.6-30,21.8-26.1,23-31.4,62.6-23.5,96.5,4.5,19.4,12.6,37.9,15.7,57.6,6.1,38.6-8.8,79.8-38.1,105.6-29.4,25.8-72.2,35.1-109.7,24-57.5-17.1-124.3-56.9-150.7-110.8-17.2-35.1-50.2-62.5-85.6-78.9-21.8-10.1-66.2-19.7-90.1-17.6-72.6,6.6-104.6,34.5-171.9,6.8-14-5.8-29.2-32.8-35-48.8-4.1-11.3-4.5-27.7-5.6-39.7-3.7-37.7,20.7-71.7,41.4-103.3s64-54.8,101.9-55.3"/>
      <path class="cls-10" d="M658.2,428.6v22.4h9.2v-22.4h-9.2Z"/>
      <g>
        <path class="cls-12" d="M795.5,263.3v22.4c3.9,0,7.7-.3,11.3-1v-21.4h-11.3Z"/>
        <path class="cls-12" d="M1369.3,101.5v423.9c0,24.2-19.6,43.8-43.8,43.8h-485.1c-24.2,0-43.8-19.6-43.8-43.8v-240.5c3.1,0,6.2-.3,9.2-1v238.1c0,13.7,11.1,24.8,24.8,24.8h510.2c10.7,0,19.4-8.7,19.4-19.4V124.3c0-.7-.6-1.4-1.4-1.4h-553v139.6h-9.2V101.5c0-21,14.8-38.7,34.6-42.8,2.9-.6,6-1,9.2-1h485c24.2,0,43.8,19.6,43.8,43.8h0Z"/>
      </g>
      <g>
        <line class="cls-4" x1="1338.5" y1="79.4" x2="1311.3" y2="104.5"/>
        <line class="cls-4" x1="1341.2" y1="104.5" x2="1311.3" y2="79.4"/>
        <g>
          <rect class="cls-4" x="1265.8" y="85.8" width="28.5" height="22.1"/>
          <rect class="cls-4" x="1244.7" y="74.3" width="42.8" height="22.6"/>
        </g>
        <line class="cls-4" x1="1231.1" y1="91.9" x2="1193.1" y2="91.9"/>
      </g>
      <g>
        <path class="cls-3" d="M1033.6,307.7c-.6,7.7-2,15.8-2.1,18.9,0,4.1-2.6,13.3-3,17.3-1.1,11.3-2.6,21.3-5.9,32.7,1.6.7,12.5-2.1,14.2-2.2,6.6-.4,13.2,1.5,18.6,5.2.3.2.6.4,1,.4.7,0,1.1-.6,1.4-1.2,1.2-2.7.8-5.8.7-8.8,0-8.8,3.7-17.2,4.1-26,.1-2.4,0-4.9-1-7.2-.8-1.8-2.1-3.3-3.3-4.7-3.1-3.4-6.4-6.4-9.8-9.5-1.8-1.6-3.6-3.3-5.7-4.4s-4.6-1.7-7-1.1"/>
        <path class="cls-28" d="M1033,307.7c-.9,10.5-2.2,21-4.2,31.3-2.5,12.6-3.2,25.1-6.8,37.5,0,.3,0,.7.4.7,2.8.6,6.3-.6,9-1.2,5.1-1,9.7-1.4,14.9,0,2.1.6,4.1,1.4,5.9,2.4.8.4,2.8,2.1,3.8,2.2.6,0,1,0,1.6-.5,3.2-2.5,1.4-11.9,1.8-15.2,1.3-9.8,7.6-22.6.6-31.4-3.8-4.8-8.7-9.2-13.3-13.1-3.3-2.7-6.8-4.4-11.1-3.7-.8.1-.4,1.3.3,1.2,5.9-1,10,3.4,13.9,7.1,3,2.8,6.2,5.7,8.8,8.9,6.4,7.8,1.8,18.7,0,27.5-.7,3.6-.9,7-.9,10.7.1,1.7,0,3.4-.2,5.2-.9,2.3-2.1,2.8-3.4,1.2-1.4-.3-3-1.6-4.4-2.2-4.8-1.9-10.2-2.8-15.4-1.8-2.6.5-5.2,1.1-7.8,1.5-.8.1-2.7.8-3.3.4s1.4-6,1.6-6.8c1.8-7.8,2.9-15.7,3.8-23.6.7-5.8,2.4-11.5,3-17.3.8-6.9,1.7-13.8,2.2-20.8,0-.8-1.1-.8-1.2,0h0Z"/>
      </g>
      <path class="cls-28" d="M1043.6,336.1c0,5.2.3,10.5.2,15.8-.1,5.8-.6,13.8-4.4,18.7-.5.6.4,1.4.8.8,7.1-9.1,4.8-24.6,4.6-35.3,0-.8-1.2-.8-1.2,0h0Z"/>
      <g>
        <path class="cls-1" d="M1054.7,363.7c3.3-9.3,1.4-19.7-1.7-29.1-.1-.4-.3-.9-.1-1.3.2-.7,1.1-.9,1.8-1.1,2.7-.5,5.3-1,8-1.6,9.7-1.9,19.5-3.8,29.3-3,.8,0,1.7.2,2.4.5,2.3,1,3.2,3.9,3,6.4s1.1,6.2-.1,8.4c-4.2,7.9-3.6,13.1-.4,20.6.7,1.5,4.1,5.8,4.2,7.4.2,2-.3,3.9-.8,5.8-.7,2.6-1.6,5.2-3.5,7-2.8,2.7-6.9,3.1-10.8,3.4-7.5.6-15.7,1-21.8-3.3-1.8-1.3-3.3-2.9-4.7-4.6-3.9-4.8-7.1-11-5.7-17.1"/>
        <path class="cls-23" d="M1055,363.8c2-6.3,2.1-12.6,1-19.1-.6-3.2-3.8-10.6-.4-12.3,2.7-1.4,7.8-1.5,10.8-2.1,4.2-.8,8.4-1.6,12.7-2,3.3-.3,9.7-1.6,12.9-.2,1.6,1.4,3.3,2.7,4.9,4.1.1,1.3.2,2.5.1,3.8,0,1.4.5,3,.4,4.5-.2,3.3-2.7,6.8-3.3,10.2-.7,4.6.5,9.7,2.7,13.8,1.2,2.3,3.1,4.1,3.6,6.7.9,4.7-1.9,11.8-6.2,14-3.4,1.8-7.8,1.8-11.5,2-4.2.2-8.7.3-12.8-.9-9.4-2.8-17.4-14-15.8-23.9,0-.4-.6-.6-.7-.2-2,12.5,9.1,24.4,21.1,25.6,5.7.6,13.2.6,18.7-1.4,5.3-2,7.6-7.7,8.1-13.1s-4.4-9.4-5.8-14.3c-1.5-5.1-.8-9.3,1.2-14.1,1.3-3.1,1.3-4.7,1.1-8.2-.2-3.9,0-8.1-4.6-9.2-7.3-1.7-16.2.2-23.4,1.4-4.8.8-9.7,1.7-14.5,2.8-1.8.4-2.5.5-2.8,2.2-.2,1.5.9,3.6,1.3,5,.7,2.6,1.2,5.1,1.6,7.7.8,5.8.6,11.4-1.2,17-.1.4.6.6.7.2h0Z"/>
      </g>
      <path class="cls-2" d="M1118.7,304.7c-1.2,28.3-21.5,50.4-45.2,49.4-7.2-.3-13.6-2.7-19.2-6.7-12.9-9.2-20.8-27-21.2-46.7-1.2-77.3,30.4-44.4,44.9-49,22.6-7.3,42,24.8,40.7,53.1Z"/>
      <g>
        <ellipse class="cls-18" cx="1085.3" cy="305.9" rx="3.5" ry="5"/>
        <ellipse class="cls-18" cx="1044.6" cy="305.9" rx="3.5" ry="5"/>
      </g>
      <ellipse class="cls-26" cx="1088.3" cy="324.9" rx="10.1" ry="9.6"/>
      <ellipse class="cls-26" cx="1048.9" cy="324.5" rx="8" ry="9.6" transform="translate(-26.7 103.9) rotate(-5.6)"/>
      <path class="cls-27" d="M1066.7,305.2c-.3,2.2-.4,4.4-.4,6.6,0,1.5-.4,3.9,0,5.2.8,1.9,3.7.2,5-.2.7-.2.4-1.3-.3-1.2-.4.1-3.3,1.2-3.5,1-.3-.3,0-3.1,0-3.5,0-2.7,0-5.4.4-8.1,0-.8-1.1-.8-1.2,0h0Z"/>
      <path class="cls-31" d="M1059.1,331.9c-.6,1.5,2.8,7.1,9,6.2,5.7-.8,7.6-7.2,6-6.9-.7.1-1.2.4-7,1-6.1.5-7.8-.8-8-.3h0Z"/>
      <g>
        <path class="cls-25" d="M670.7,756.1c-102.3,29.2-69.7,22.5-143.5,79.7-14.5,11.2-72.2,87.5-84.5,101.3-12.7,14.2-6.5,13.8-24.2,20.3-35.3,12.9-74.7,25.6-109.3,10.7-41.7-18-59.5-68.6-93.3-99.6-19.7-18.1-45.3-29.4-71.6-31.6-21-1.8-43.2,1.9-62.3-7.4-32.6-15.8-38.9-66.1-16.8-95.4,7.6-10,17.5-18,25-28.1,21-28.6,18.1-69.6,3.6-102.2-8.3-18.6-20-35.6-27-54.8-13.8-37.6-7.5-82.3,16.1-114.3s63.7-50.2,102.6-46.7c59.8,5.4,133.2,31.9,169.9,80.8,23.8,31.8,61.7,52.7,99.7,62,23.3,5.7,68.9,6.3,91.8-.8,69.8-21.5,95.5-56.3,167.1-42.1,14.9,2.9,35.3,28.7,44.1,42,6.8,10.3,10,27,13.5,38.9,11.1,37.2-5.8,76.5-19.8,112.7-14,36.2-51.7,68.4-88.7,76.7"/>
        <path class="cls-25" d="M667.6,744.6c-16.8,4.8-33.7,9.5-50.3,15.1-9.9,3.3-19.9,6.9-29,11.9-16.3,8.9-29.6,23-43.7,35-10.1,8.6-21.6,16.1-30.9,25.5-8.3,8.4-15.8,17.7-23.3,26.8-17.1,20.8-33.4,42.1-50.4,62.9-2.9,3.6-6,7-8.9,10.6-2.3,2.9-4.6,5.8-6.7,8.9-1.6,2.3,1.2-.8,0,0-.3.2-.7.7-1,1-1.5,1.8,2-.8.2-.2-1,.3-1.9,1-2.8,1.5-2.8,1.4,1.4-.6-.6.3-1,.4-2.1.8-3.2,1.2-5.5,2.1-11,4-16.6,5.9-10.8,3.7-21.7,6.9-32.8,9.2-19.5,3.9-40.5,4-58.3-5.6-14.3-7.7-26.1-20.5-35.8-33.2-11.4-14.9-21.6-30.7-33.6-45.2-12.8-15.6-28.3-28.9-46.5-37.9-20.4-10-41.7-13.9-64.3-14.2-10.3-.1-20.8.3-30.9-2-4.4-1-8.6-2.3-12.6-4.6-4.1-2.3-4.5-2.7-7.8-6-9.3-9.4-13.6-23.4-13.4-37.3,0-1.7,0-3.3.2-5,0-1,.2-2.1.3-3.1.3-2.3-.5,2.7.2-1.1.8-4.1,1.8-8.1,3.2-11.9,1-2.6,2-4.8,4.1-8.2,2.4-3.9,5-7,8.2-10.5,7.6-8.2,15.7-15.8,21.9-25.2,5.5-8.2,9.5-17.8,11.9-27.4,5-20.2,3.7-41.8-1.8-61.8-5.9-21.8-18-40.8-28-60.8-8.9-18-13.5-37-12.7-57.1,1.6-38.6,23-73.6,57.4-91.4,33.8-17.5,70.3-11.6,105.3-2.1,35,9.5,70.1,25.2,96.4,50.2,14.3,13.5,23.9,29.4,39.3,42.3,16.5,13.8,34.9,24.3,54.8,32.2,34.8,13.9,73.5,16.5,110.4,11.1,35.9-5.3,69.3-26.9,101.3-39,16.6-6.3,31.5-9.4,48.8-9.1,9.2.2,18.9.9,27.8,3.5,1.8.5-2.4-1.4.5.2.6.3,1.3.7,1.9,1,1.7,1,3.4,2.1,4.9,3.3-.4-.3-1.3-1,.6.5.7.6,1.3,1.1,2,1.7,2.1,1.8,4,3.7,5.9,5.7,11.4,11.7,20.9,23.6,25.7,39.5,2.8,9.4,5.8,19.1,7.6,28.7s1.4,20.5-.2,30.4c-3.8,23-12.9,44.9-21.3,66.5-6.7,17.2-19.3,32.7-33.6,44.9-13.6,11.6-29.7,20.3-47.1,24.3-6.2,1.4-10,8.6-8.3,14.6,1.8,6.4,8.3,9.7,14.6,8.3,40-9.2,77.5-40.5,94.1-78,9.6-21.7,18.5-44.9,23.4-68.1,2.4-11.6,3.9-23.7,3.1-35.6-.8-11.5-3.9-22.2-6.9-33.3-2.7-10-5.5-20.6-10.9-29.5-4.4-7.3-9.9-14.1-15.3-20.6-6.1-7.3-12.7-14-20.3-19.8-7.7-5.8-15.5-8.4-25-9.8-20-3-40-2.9-59.8,1.9-17.6,4.3-34.2,12.2-50.6,19.8-18,8.4-36.2,16.6-55.3,22.2-16.3,4.7-33.9,4.9-51.9,4.3-8.2-.3-17.4-1-23.8-2.1-9.2-1.5-18.2-4.1-27-7.1-18.9-6.5-37.2-16.2-52.7-28.9-8-6.6-15.3-14-21.7-22.1-5.8-7.5-11.8-14.7-18.7-21.2-14.2-13.3-30.5-24.3-47.7-33.2-35.2-18.1-74.4-29.1-113.8-32.5-42.5-3.7-85.2,16.5-111,50.1-26.1,34.1-33.9,82.2-20.2,122.9,7.4,22.2,21.4,41.2,30.1,62.8,7.2,17.7,11,38,8.2,56.5-1.4,9.3-4.2,18-9,25.9-5.4,9-13.2,15.9-20.2,23.6-13.5,14.7-21.4,31.7-22.9,51.7-1.3,16.7,2.7,34.9,12,49,12,17.9,30.2,26.4,51.3,28.7,11.1,1.2,22.4.7,33.5,1.1,10.7.4,21,2.3,31.2,5.6,19.3,6.4,35.7,18.3,49.2,33.4,24.2,27.2,40.8,62.8,72.3,83.8,40.8,27.2,90.8,12.9,133-2.9,6.6-2.4,13.6-4.9,18.3-10.4,1.9-2.2,3.5-4.7,5.3-7.1.1-.2,2.1-2.7.7-1,.5-.7,1.1-1.4,1.7-2,1-1.2,2.1-2.4,3.1-3.6,6.8-7.9,13.2-16.2,19.7-24.4,17.7-22.4,35.1-45.3,54.3-66.4,8.4-9.2,18.4-16.2,28-24.1,9.5-7.8,18.6-15.9,27.8-24,1.5-1.3,3-2.6,4.4-3.8.8-.7,1.6-1.3,2.3-1.9.3-.2.6-.5.9-.7,1.7-1.4-2.5,1.8-.3.3,3-2.2,6-4.3,9.3-6.1,1.8-1,3.6-1.9,5.4-2.8.9-.4,1.8-.8,2.7-1.2.8-.3,4.9-2,1.3-.6,5.3-2.1,10.6-4.1,16-5.8,16.4-5.5,33.2-10.1,49.8-14.9,14.7-4.2,8.4-27.1-6.3-22.9h0Z"/>
      </g>
      <path class="cls-30" d="M408.7,513.5c.9-1.3-1.3-7.5-7.6-7.9-5.7-.4-8.9,5.5-7.2,5.6.7,0,1.2-.2,7,.4,6.1.7,7.4,2.4,7.8,1.9h0Z"/>
      <path class="cls-6" d="M1059.1,330.7s1.8,5.1,8.8,4.4c6.5-.6,7-5.1,7-5.1"/>
      <g>
        <path class="cls-3" d="M1049.7,256c-.1,5.3-2.2,10.5-5.4,14.6-3.3,4.1-5.3,7.8-9.5,11.5-.6.6-1.6,5.7-2.1,5.1-.2-.3-2.3-8.2-2.3-8.6,0-2.7-.3-5.4.6-7.9,1.4-4.3,2.9-8.5,4.8-12.6,1.4-2.9,3.1-5.7,5.4-7.9s5.3-3.9,8.5-4.2c.4,0,.8,0,1.1.1.7.4.6,1.4.5,2.2-.8,4.2-1.7,8.4-2.5,12.6"/>
        <path class="cls-28" d="M1049.1,256c-.6,9.5-7.1,17.7-13.4,24.4-1.1,1.2-1.2.9-1.7,1.9-.5.9-.4,2.9-1.2,3.5-.1.1.2.8-.2-.8-.3-1.2-.7-2.4-1-3.7-2-7.9,1.2-15.9,4.6-22.9,2.1-4.2,4.7-8.4,9.1-10.6,7.6-3.8,3.4,9.4,2.8,12.9-.2.8,1,1.1,1.2.3.8-3.8,2.7-8.9,2.5-12.8,0-1.3.2-2.1-1.1-2.8-2.3-1.3-7,1.8-8.6,3.1-2.4,1.9-4.2,4.4-5.7,7.1-5.4,9.8-8.9,21.1-4.2,31.8.1.3.4.3.7.3,1-.2,1.1-1.8,1.4-2.6,1.5-3.5,4.3-6,6.6-9,4.8-6.3,9-12,9.4-20.2,0-.8-1.1-.8-1.2,0h0Z"/>
      </g>
      <g>
        <path class="cls-3" d="M1049.6,246c-5.6,13.4,2,28.9,11.3,40.2,3.4,4.2,7.6,7.9,12.7,9.8,5.7,2.1,11.9,1.6,18,1,5-.5,10.1-.9,15.1-1.4,3-.3,6.2-.5,8.8,1.1,1.8,1.1,4,2.8,3.9,5-.3,9.7-2.3,19.9-6.2,26.9-1.2,2.2-1.9,4.1-4.4,7.1-3.9,4.8-4.2,6-12.6,13.8-.2,6.9-1.9,2.8,1,11.7s2.5,9.1,3.2,10.1c.8,1.1.6,0,2,.2,16.7,1.4,26.8,6.9,44.3,9.4,0-10.2-1.7-9.4-1.4-21.4.2-6.5-.5-12.4-.7-19.1-.5-17.2-.5-34.5-3.7-51.4-.9-5.1-2.1-10.1-4.1-14.9-1.6-3.8-3.8-7.3-6.2-10.6-9-12.1-21.4-20.6-36.2-23.2-5-.9-10.7-.8-15.7-1-3-.1-5.5-.2-8.6,0-2.9.1-4.7.2-7.6,0-2.8-.2-6.4.6-8.9,2.5-4.4,3.2-6,7.4-5.8,13"/>
        <path class="cls-28" d="M1049.1,245.8c-4.8,12.6.6,25.8,8,36.2,3.6,5.1,7.8,10.1,13.3,13.1,6.6,3.6,14,3.1,21.2,2.4,6.8-.6,23.7-5.1,26.4,3.4,2.4,7.7-1.3,19.5-4.9,26.6-2.3,4.6-5.4,8.7-8.7,12.7-2.8,3.3-7.9,6.2-8.8,10.3-.9,4.1-.2,6.6,1.1,10.6,1,3.2,1.4,8.6,4,10.9.2.1.4.2.6.2,3.4-1.4,9.1.6,12.7,1.3,3.5.7,6.9,1.6,10.3,2.6,7.4,2,14.8,3.9,22.4,5.1.4,0,.8-.2.8-.6,0-5.2-1.1-10.2-1.3-15.3-.4-8.1-.4-16.2-.7-24.3-.7-18.1-.5-36.3-4-54.2-2.9-14.6-10.1-27-21.9-36.3-5.6-4.4-11.9-7.8-18.7-9.8-7.5-2.2-15.1-2.2-22.8-2.5-4.6-.1-9.2.3-13.7.1-3-.1-5.7-.1-8.5,1.1-6.1,2.7-8.5,8.6-8.5,14.9,0,.8,1.2.8,1.2,0,0-4.5,1-8.6,4.5-11.7,4-3.5,8.5-3,13.4-3.1,8,0,15.9-.4,23.9.3,16.7,1.6,31.5,11.3,41.1,24.9,10.5,15.1,11.4,35.4,12.2,53.2.4,8.8.4,17.7.8,26.5.4,7.6,0,15.4.7,23,.2,2,.6,4,.8,6,.1,1,.2,2,.3,3,.2,2.8,0,3.2-2.8,3-7.5-.5-15.2-3.6-22.4-5.5-3.2-.8-6.5-1.6-9.8-2.2-2.7-.5-6.9-.1-9.2-1-2.8-1.1-4.1-9.7-5-12.9-1.4-4.7-.1-8.2,3.4-11.6,3.2-3.1,6-6.5,8.7-10,3.6-4.5,6.3-9.8,8-15.3,1.1-3.5,1.8-7.1,2.3-10.7.4-3,1.5-7.1.5-10.1-1.8-5.7-9.4-5.6-14-5.2-9.8.9-21.6,3.7-31.1.6-9.5-3.1-16.3-12.7-20.9-21.1-4.8-8.8-7.3-18.8-3.6-28.5.3-.7-.9-1-1.2-.3h0Z"/>
      </g>
      <g>
        <path class="cls-14" d="M884,435.5l-26.7-14.7c-2.1-1.3-21.1-17-22.3-15-2.9,5,4.1,8.8,5.5,15.4,0,0-34.7-19.3-38.4-16.7-3.7,2.6,10.3,16.7,21.6,21.8,0,0-33.4-16.7-37-12.5s35.1,21.1,35.1,21.1c0,0-29.8-9.6-35.4-6.4-5.6,3.2,25,13.9,31.8,16,7.1,2.2-23.6-2.9-24.3,1.6-.7,4.5,33.7,13.4,81.8,19.8,48,6.4,8.3-30.5,8.3-30.5h0Z"/>
        <path class="cls-27" d="M840.9,422.8c-.8,4.3-2.2,8.1-.6,12.4,1.3,3.6,4,6.3,7,8.5.6.4,1.2-.6.6-1-3-2.2-5.8-5.2-6.8-8.9-1-3.7.3-7.1.9-10.7.1-.8-1-1.1-1.2-.3h0Z"/>
        <path class="cls-27" d="M823.7,423.5c-1.5,8.5-3.3,16.9-5.5,25.2-.2.7,1,1.1,1.2.3,2.1-8.3,4-16.7,5.5-25.2.1-.8-1-1.1-1.2-.3h0Z"/>
      </g>
      <g>
        <path class="cls-14" d="M521.3,677.1l23.5-23.9c1.8-2,17-25,18.8-23.1,4.5,4.8-1.7,11-1.2,18.9,0,0,30.5-31.4,35.1-29.5s-5.8,21.6-16.1,30.5c0,0,29.9-28,34.9-24.3,5.1,3.7-30.4,33.5-30.4,33.5,0,0,28.2-19,35-16.9,6.8,2.1-21.9,22.6-28.3,26.8-6.8,4.4,23.7-9.8,25.8-4.9s-31.2,24.5-79.4,45c-48.2,20.5-17.7-32.1-17.7-32.1h0Z"/>
        <path class="cls-27" d="M561.5,651.5c1.8,4,4.2,7.4,4.2,12,0,4.4-2,8.4-4.5,11.9-.5.6.6,1.2,1,.6,2.7-3.7,4.6-7.9,4.7-12.5,0-4.8-2.4-8.4-4.3-12.6-.3-.7-1.3,0-1,.6h0Z"/>
        <path class="cls-27" d="M579.6,647.5c4.1,9.1,8.5,18.1,13.2,26.9.4.7,1.4,0,1-.6-4.7-8.8-9.1-17.8-13.2-26.9-.3-.7-1.3,0-1,.6h0Z"/>
      </g>
      <path class="cls-13" d="M1013.5,406.7l56.9,66.7c7.2-1.9,32.9,6.2,34.4,6.7-1.7-.7-38.7-17-35.1-21.1,3.1-3.5,27.5,7.9,34.9,11.5-10.9-5.8-22.9-18.3-19.5-20.8,3.7-2.6,38.6,17.1,38.6,17.1-1.4-6.7-8.7-10.8-5.8-15.8,1.2-2,.9,55.1,3,56.4l32.1,16.9,3.9-16.9-2,9.6v.7c-.1,0,19.3,6.2,19.3,6.2l55.3,17.6c10.8,3.5,15.4,6,37.3-2.9,13.8-5.6,12.5-45-6.3-63.6-42.2-41.7-94-103.6-154.1-105.1l34.6,30.4-127.6,6.5h0Z"/>
      <path class="cls-28" d="M1115.1,324.5c.9,4.2-.1,8.1-.5,12.2-.4,4.1-.4,8.3-.4,12.4,0,7.6,0,15.1,0,22.7,0,.8,1.2.8,1.2,0,0-8.2,0-16.4,0-24.6,0-4.7.2-9.3.8-14,.4-3.1.7-6,0-9.1-.2-.8-1.3-.4-1.2.3h0Z"/>
      <path class="cls-28" d="M1047.6,248.6c.6,4.2,2.9,8.3,5,12,2.4,4.3,4.9,8.8,7.8,12.8s7.7,6.1,12.2,8.1c5.7,2.5,10.6,5.4,17,4.9,3.8-.3,7.5-1.3,11.3-1.4,3.9,0,8,.4,11.9.9,9.7,1.4,17.4,5.8,20.2,15.7,1.7,6.3,1.2,12.8,1.3,19.3,0,4.8.2,9.7.3,14.5.2,12.5.7,26.3-3.8,38.2-.3.7.9,1,1.2.3,3.7-10,3.8-21.4,3.9-32s.1-21.4-.4-32c-.7-13.4-7.2-22.7-20.8-25-6.6-1.1-13.3-1.6-20-.6-5.8.9-10.5,1.1-15.9-1.4-2.9-1.3-5.7-2.6-8.6-3.9-6.8-3.2-10-8.1-13.7-14.2-3-5-6.9-10.7-7.7-16.7,0-.8-1.2-.4-1.2.3h0Z"/>
      <path class="cls-13" d="M1166.3,521.8l-.3,25.5-180.4,1.9-1.1-84.6c0-2.5-19.2,54.8-123,5.7,0,0,6.5-31,2.5-51,0-2.6,41.2,36.5,80.3,3.1,45.6-39,66.6-54.4,103.3-53l-3.2,46.5"/>
      <g>
        <g>
          <path class="cls-16" d="M1076.6,512.8l.8-102.4-.8-40.9s16.3-11.5,18.4-10c1.6,1.1,1.6,3.3,3.7,9.3,0,.2.1.3.2.4.8,0,1.8-.2,3.2-.3,3-.1,5.2.1,6.4.3,3.4.4,6.4,6.6,12.5,7.3-6.3,12.8-10.7,19.8-16.8,41.4l-27.6,94.9h0Z"/>
          <path class="cls-5" d="M1088.6,384.4c0-.6-4.7-15.9-9.7-16.5"/>
          <path class="cls-5" d="M1088.5,384.5c10.8-6.1,10.4-15.3,10.4-15.3"/>
        </g>
        <g>
          <path class="cls-16" d="M1078.4,512.8l-1.3-103.1-1-40.3s-19-10.7-21-9c-2,1.7-2.6,9-2.6,9-3.1,0-4.1-.2-7.4-.2-5.7,0-6.2,7.6-12.8,8.1-6.8.5,12.3,25.9,20.6,42.5l25.6,93Z"/>
          <path class="cls-5" d="M1066.2,385.2c-.1-.6,2.7-16.2,7.6-17.2"/>
          <path class="cls-5" d="M1052.4,369.4s2.5,10.6,13.9,15.8"/>
        </g>
      </g>
      <g>
        <ellipse class="cls-17" cx="1072.9" cy="381.9" rx="2" ry="1.7"/>
        <ellipse class="cls-17" cx="1073.6" cy="402" rx="2" ry="1.7"/>
      </g>
      <g>
        <ellipse class="cls-17" cx="1073.3" cy="420.9" rx="2" ry="1.7"/>
        <ellipse class="cls-17" cx="1074" cy="440.9" rx="2" ry="1.7"/>
      </g>
      <g>
        <ellipse class="cls-17" cx="1073.6" cy="459.9" rx="2" ry="1.7"/>
        <ellipse class="cls-17" cx="1074.3" cy="479.9" rx="2" ry="1.7"/>
      </g>
      <line class="cls-8" x1="1078.8" y1="500.6" x2="1080.8" y2="546.4"/>
      <polygon class="cls-13" points="1007.6 385.2 1072 549.2 1081.7 549 1086.6 548.8 1088.6 548.8 1142.9 406.8 1149.5 387.8 1104.9 368.9 1079.1 502.8 1047.9 368.8 1007.6 385.2"/>
      <g>
        <path class="cls-9" d="M1116.2,492.9c.6,0,.8,0,.9.2-.4.1-10.9-1.6-19.2-1.9-5.3-.2-9.7,0-9.9,1.7-.5,2.7,13.2,6.7,24.4,7.7,18.2,1.5,15.1,3,44.6,6.8l7.5-34.9-8.1-5c-2.1-1.3-22.3-15.3-23.5-13.3-2.9,5,4.3,9.1,5.8,15.8,0,0-35-19.6-38.6-17.1-3.4,2.4,9.4,12.8,18.9,20.3,0,0,0,.2,0,.1-8.1-3.9-31.2-14.6-34.2-11.1-3.3,3.8,28.8,18.3,34.3,20.7,0,0,0,0,0,0-4.6-1.4-27-8.2-33.6-6.5-.4,0-.7.2-.9.4-2.3,1.3,1.4,4,7.1,6.8,8.2,4.1,20.5,8.4,24.7,9.2h0Z"/>
        <path class="cls-27" d="M1139.4,471.9c.8,0,.8-1.2,0-1.2s-.8,1.2,0,1.2h0Z"/>
      </g>
      <path class="cls-8" d="M1182.5,526.5l-27.7-8.8,2.1-10.2,6.6-31.5,2-7.8s67.7,25.6,74.3,21.8"/>
      <path class="cls-23" d="M1141.7,195.1c.5,0,.5-.7,0-.7s-.5.7,0,.7h0Z"/>
      <g>
        <path class="cls-1" d="M1109.2,301.8c2.2-6.3,6-6,9.5-5.7,2.2.2,4.5.4,6.2,1.8,2,1.7,2.6,4.5,3.1,7.1.8,4.7,1.4,10-1.7,13.6-1.8,2-4.4,3.1-6.9,4-1.4.5-5.2,1.8-9.2-1"/>
        <path class="cls-11" d="M1109.6,301.9c1.9-4.6,4.7-5.8,9.2-5.4,5.6.5,8.2,3.9,9,9.3s1.1,10.9-4.1,14.4c-4,2.8-9,3.5-13.3,1-.4-.2-.8.4-.4.6,4.9,2.9,10.9,1.8,15.3-1.9,4.7-3.8,3.9-10.4,2.9-15.7-1.1-5.9-4-8.1-9.9-8.5-4.9-.4-7.5,1.4-9.4,6-.2.4.5.6.7.2h0Z"/>
      </g>
      <path class="cls-11" d="M1113,313.5c3.8-2.5,6.5-6,10.1-8.7.4-.3,0-.9-.4-.6-3.6,2.7-6.3,6.2-10.1,8.7-.4.2,0,.9.4.6h0Z"/>
      <path class="cls-28" d="M1048.3,248.1c15.6,9.7,33.6,13.3,51.3,16.9,9.6,1.9,20.6,3.7,27.2,11.7,6.4,7.7,5.6,18.5,6.8,27.9,0,.8,1.3.8,1.2,0-1-8.2-.6-17.3-4.5-24.8s-11.8-11.5-19.8-13.7c-21.1-5.7-42.6-7.3-61.7-19.1-.7-.4-1.2.6-.6,1h0Z"/>
      <path class="cls-28" d="M1047.8,247.9c-7.1,12.1-16.3,24.7-15.2,39.5,0,.8,1.2.8,1.2,0-1.1-14.6,8.1-26.9,15.1-38.9.4-.7-.6-1.3-1-.6h0Z"/>
      <path class="cls-27" d="M985.1,466.1c1.1-3.6,2-7.3,4-10.6.4-.7-.6-1.2-1-.6-2.1,3.3-3.1,7.1-4.1,10.9-.2.7.9,1.1,1.2.3h0Z"/>
      <path class="cls-27" d="M1240.1,490c-.7-1.9-2.2-3.4-4.1-4.1-.7-.3-1,.9-.3,1.2,1.5.6,2.7,1.8,3.2,3.3.3.7,1.4.4,1.2-.3h0Z"/>
      <path class="cls-27" d="M1171.3,469.4c.7-3.8,1.5-7.6,2.2-11.4.2-.8-.9-1-1.2-.3-1.3,3.5-2.1,7.1-2.3,10.8,0,.8,1.1.8,1.2,0,.2-3.6,1-7.1,2.3-10.5l-1.2-.3c-.7,3.8-1.5,7.6-2.2,11.4-.1.8,1,1.1,1.2.3h0Z"/>
      <g>
        <path class="cls-27" d="M1036.8,292.8c4.7-2.2,9.9-1.8,14.2,1,.6.4,1.2-.6.6-1-4.7-3.1-10.4-3.4-15.4-1-.7.3,0,1.3.6,1h0Z"/>
        <path class="cls-27" d="M1076.4,294.3c5.1-2.3,10.7-2.4,15.8-.2.7.3,1.3-.7.6-1-5.6-2.4-11.5-2.4-17.1.2-.7.3,0,1.3.6,1h0Z"/>
      </g>
      <line class="cls-8" x1="1080.3" y1="552.8" x2="1079.3" y2="500.2"/>
      <g>
        <path class="cls-1" d="M309.7,626.1c-3.3-9.3-1.4-19.7,1.7-29.1.1-.4.3-.9.1-1.3-.2-.7-1.1-.9-1.8-1.1-2.7-.5-5.3-1-8-1.6-9.7-1.9-19.5-3.8-29.3-3-.8,0-1.7.2-2.5.5-2.3,1-3.2,3.9-3,6.4s-1.1,6.2.1,8.4c4.2,7.9,3.6,13.1.4,20.6-.7,1.5-4,5.8-4.2,7.4-.2,2,.3,3.9.8,5.8.7,2.6,1.6,5.2,3.5,7,2.8,2.7,7,3.1,10.8,3.4,7.5.6,15.7,1,21.8-3.3,1.8-1.3,3.3-2.9,4.7-4.6,3.9-4.8,10.5-1.3,4.9-15.6"/>
        <path class="cls-23" d="M310.1,626c-1.5-4.7-2-9.5-1.5-14.4.3-2.9.8-5.8,1.5-8.6.4-1.8,1.8-4.2,1.7-6,0-1.6.5-1.3-.8-2.4-1.2-1-4.4-1-5.9-1.3-2.6-.5-5.2-1-7.8-1.5-7.9-1.5-18.2-4.1-26.1-1.9-5.3,1.4-4.5,7-4.8,11.4-.2,3.6,1.4,5.6,2.5,8.9,1.6,5.2.8,10.3-1.5,15.1-1.2,2.4-3.4,4.6-4.2,7.2-.6,2.1,0,4.7.6,6.7,1.7,6.3,5.3,9.5,11.8,10.4,7.1,1,15.4,1.6,22.1-1.5,3.5-1.6,5.3-4.3,8.1-6.8,1.5-1.4,3.6-1.9,5.1-3.3,3.3-3.1.7-8.7-.6-12.1-.2-.4-.8-.2-.7.2,1.1,2.9,3.7,8.1,1.3,11-1,1.1-2.7,1.6-3.8,2.3-1.8,1.2-2.9,2.9-4.4,4.4-4,3.9-8.8,5.3-14.2,5.7-3.7.2-7.5,0-11.2-.4-7.3-.8-11.4-4.1-12.9-11.4-1.3-6.4,4.5-11.5,5.8-17.6.5-2.4.7-4.8.3-7.2-.6-4.1-3.1-7.6-3.2-11.7,0-1.8,0-5.1.4-6.8,1.3-4.6,6.2-4.2,9.5-4.3,5.2,0,10.4.6,15.5,1.4,4.1.7,8.2,1.5,12.3,2.3,1.1.2,2.1.4,3.2.6,1.5-.2,2.2.5,2,2.1.9,2.3-.4,4.6-1,6.9-1.7,7.5-2.1,15.1.2,22.5.1.4.8.2.7-.2h0Z"/>
      </g>
      <path class="cls-2" d="M245.7,567.1c1.2,28.3,21.5,50.4,45.2,49.4,7.2-.3,13.6-2.7,19.2-6.7,12.9-9.2,20.8-27,21.2-46.7,1.2-77.3-30.4-44.4-44.9-49-22.6-7.3-42,24.8-40.7,53.1h0Z"/>
      <ellipse class="cls-26" cx="276.1" cy="587.3" rx="10.1" ry="9.6"/>
      <ellipse class="cls-26" cx="315.6" cy="587.1" rx="9.6" ry="8" transform="translate(-299.5 843.9) rotate(-84.4)"/>
      <path class="cls-27" d="M298.7,569.5c.3,2.7.4,5.4.4,8.1,0,.5.3,3.1,0,3.4-.3.3-3.1-.8-3.5-.9-.7-.2-1,.9-.3,1.2,1.3.4,4.2,2.1,5,.2.5-1.3.1-3.9,0-5.2,0-2.2-.2-4.4-.4-6.6,0-.8-1.3-.8-1.2,0h0Z"/>
      <path class="cls-6" d="M305.1,591.8s-.9,5.3-7.9,5.9c-6.5.6-7.8-3.8-7.8-3.8"/>
      <ellipse class="cls-18" cx="279.1" cy="568.3" rx="3.5" ry="5"/>
      <ellipse class="cls-18" cx="319.8" cy="568.3" rx="3.5" ry="5"/>
      <g>
        <path class="cls-1" d="M255.2,564.2c-2.2-6.3-6-6-9.5-5.7-2.2.2-4.5.4-6.2,1.8-2,1.7-2.6,4.5-3.1,7.1-.8,4.7-1.4,10,1.7,13.6,1.8,2,4.4,3.1,6.9,4,1.4.5,5.2,1.8,9.2-1"/>
        <path class="cls-11" d="M255.5,564.1c-1.8-4.4-4.2-6.3-9-6-6.1.3-9.2,2.5-10.3,8.6-1,5.3-1.8,11.8,2.9,15.7,4.4,3.7,10.4,4.8,15.3,1.9.4-.2,0-.8-.4-.6-4.3,2.5-9.2,1.8-13.3-1-5.1-3.5-5-8.9-4.1-14.4.8-5.4,3.3-8.8,9-9.3,4.5-.4,7.3.8,9.2,5.4.2.4.9.2.7-.2h0Z"/>
      </g>
      <path class="cls-11" d="M251.8,575.3c-3.8-2.5-6.5-6-10.1-8.7-.4-.3-.7.3-.4.6,3.6,2.7,6.3,6.2,10.1,8.7.4.3.7-.4.4-.6h0Z"/>
      <g>
        <path class="cls-27" d="M328.2,554.2c-5.1-2.4-10.7-2-15.5,1-.6.4,0,1.4.6,1,4.3-2.8,9.5-3.2,14.2-1,.7.3,1.3-.7.6-1h0Z"/>
        <path class="cls-27" d="M288.6,555.7c-5.5-2.5-11.5-2.6-17-.2-.7.3,0,1.3.6,1,5.2-2.2,10.7-2.2,15.8.2.7.3,1.3-.7.6-1h0Z"/>
      </g>
      <path class="cls-15" d="M958.4,224.1l22.5,36-46.2-27.2s-140.1,21.1-140.8-74.7c-.7-99.4,135.1-90.4,182.4-73,54.7,20.1,96.5,112.4-17.9,138.8h0Z"/>
      <g>
        <path class="cls-27" d="M250.7,523.4c-3.2-1.8-8.3-1.2-11.6.3-4.1,1.8-6.4,4.7-8.2,7.8-1.5,2.6-2,8.5-1.7,11.5.5,5.7.6,5.6,2.7,10.9,1,2.4,4.2,4.2,6.6,5.2,2,.9,4.3-.6,6.5-.8,7.5-.9,11.1,6.6,12.4,12.8,2.8-3.7,5.3-4.8,6.6-10.2,1-4-.3-11,3.7-11.8,2.3-.5,10,.3,12.3.2,8.8,0,16.7-2.5,23.6-7.9,1.1-.8,2.2-1.7,3.5-1.7,1.1,0,2.1.7,3,1.3,5.4,3.6,11.9,6.8,18.2,5.1,6.5-1.7,10.7-8.5,11-15.2s-2.7-13.2-6.6-18.7c-3-4.3-6.7-8.3-11.5-10.4-5-2.2-10.7-2.2-16.1-2-5.8.1-11.6.2-17.3,1.2-14.8,2.5-28.4,10.9-37.2,23"/>
        <path class="cls-27" d="M250.9,523.1c-6-2.6-13.2-.5-17.5,4.3-4.6,5.1-5,11.9-4.3,18.5.7,5.6,2.8,10.8,8.2,13.2,3.7,1.6,6.5-.9,10.3-.2,5.9,1.1,8.3,7.3,9.5,12.5,0,.2.4.4.6.2,3.8-4.7,6.7-7.8,7.2-14.1.1-1.5,0-3.4.5-4.8,1.3-3.5,3.3-3.2,6-3.1,3.2,0,6.3.4,9.4.4,7.8-.1,15.3-2.5,21.6-6.9.7-.5,1.7-1.5,2.4-1.8,2-.6,4.8.5,6.5,1.3,2,.9,3.8,2.2,5.9,3.1,3,1.2,6.3,2,9.5,1.5,14.4-2,14.5-19.7,9.3-29.8-3.2-6.3-8.1-12.8-14.8-15.7-7.7-3.4-17.7-2.3-25.8-1.7-18,1.2-34.3,9.5-45.2,24-.3.4.3.7.6.4,14.6-19.4,37.4-25.4,60.8-24,13.2.8,23.4,11.7,26.5,24.3,1.5,6,.7,12.6-3.5,17.3-5.5,6.2-13.4,5-20.1,1.6-2.6-1.3-5.6-4.6-8.8-3.6-1.8.5-3.5,2.4-5,3.3-2.6,1.7-5.4,3-8.4,4-4.5,1.5-9.2,2.1-14,1.9-3.2-.1-7-1-10.2-.3-5.7,1.3-3.6,9.4-5,13.7-.8,2.3-2.3,4.5-4.1,6.2-2,1.9-1.6,1.2-2.4-1.1-1-2.8-2.4-5.6-4.7-7.4-3.3-2.7-6-1.7-9.8-1.4-7.1.6-10.9-4.6-12.2-11-1-4.9-1.1-11.4,1.1-16,3.4-6.8,12-11.2,19.3-8,.4.2.8-.4.4-.6h0Z"/>
      </g>
      <path class="cls-27" d="M325,589.2c.8,0,.8-1.2,0-1.2s-.8,1.2,0,1.2h0Z"/>
      <g>
        <path class="cls-29" d="M262.6,631.8c-30.3.6-60.4,6.1-82.6,25.5-19.9,17.4-30.3,43.9-32.1,70.3-1.9,26.4-.4,54.2,8.2,79.2,2.9,8.5,5.9,22.8,11.8,28.6,9.6,9.4,31.4,5.4,44.8,4.8,17.7-.8,35.5,2.5,53,4.8,34.2,4.3,69-.8,103.3-3.8,3.9-.3,12,1.8,14.6-1,2.3-2.5-.6-10.5-.3-13.8,2.4-26.7.4-53.2-6.6-79,1.6,3.3,3.1,5,4.7,6.1,7.9,5.9,22.6,12,32.2,14,32.8,6.7,52.6-2.4,76.5-8.3,12-3,25.8-11.4,35.9-18.6,20.3-14.7,24-14.5,34-34.9-15.2-14-27.5-29.4-34-48.9,0-.2-.3-.4-.6-.2-22.8,10.8-51.2,28.7-76,32.6-18.4,2.9-30.5-13.7-45.1-24.9-3.8-2.9-7.4-6.2-10.7-9.8-2.6-2.8-5.4-5.4-8.5-7.7-12.2-9.1-27.2-14.1-42.2-15.7-7.5-.8-15.1-.8-22.6.4-2.5.4-8,.6-9.7,2.5-1,1.2-1,3.8-2.2,5.3-1.1,1.5-2.6,2.7-4.1,3.7-8.2,5.3-19,6.4-28.1,2.9-6.2-2.4-7.8-5-12.9-9.3-1-.9,1.3-4.1,0-4.6-1.3-.5-10.3,0-11.6.2"/>
        <path class="cls-27" d="M262.6,631.2c-37.6.9-76.7,10.2-98.4,43.7-10,15.4-15.4,33.6-16.8,51.9-1.7,21.5-1,43.4,3.7,64.5,2.1,9.3,5.2,18.5,8.1,27.6,2,6.4,4.4,14.2,10,18.4,11.8,8.7,30.2,4.1,43.5,3.5,23.4-1.1,46.2,5.1,69.5,6.1,23.8,1.1,47.6-1.4,71.2-3.7,6-.6,12.2-1.7,18.2-1.4,3.3.2,7.5,1.2,10.7-.1,5.6-2.4,1.4-12.8,1.8-17.2,1.8-26.1,0-51.9-6.8-77.3l-1.1.5c3.1,5.9,8.1,8.8,13.9,11.8,6.6,3.4,13.6,6.2,20.8,8,14.9,3.8,30.7,3.8,45.8.9,7-1.3,13.9-3.3,20.7-5.2,7.2-2,14.7-3.6,21.7-6.4,14.5-5.9,27-15.6,39.6-24.5,10.1-7.1,16.3-15.2,21.8-26.3.1-.2.1-.5,0-.7-10-9.3-19.3-19.6-26.1-31.5-1.6-2.7-3-5.5-4.3-8.4-.6-1.3-2.3-8.1-3.5-8.9-2.4-1.6-7.4,2.5-9.6,3.6-12.4,6.3-24.7,13.1-37.4,18.7-11.4,5.1-26.7,12.1-39.4,9.5-12.4-2.6-21.5-13-30.7-20.9-5.2-4.4-10.4-8.5-15.2-13.5-4.7-4.9-9.8-9-15.7-12.4-10.8-6.3-23.1-9.8-35.5-11.2-7-.8-14-.7-20.9.1-3.4.4-9.5.1-12,3-.7.8-.5,1.2-1,2.1-1.4,3.1-2.3,4.8-5.1,6.7-4,2.6-8.7,4.2-13.4,4.6-8.3.9-16.4-1.6-22.6-7.2-.9-.8-2.4-1.8-3-2.7-1-1.3-1.2-2.5-.7-3.8,0-.3,0-.6,0-.9-.5-.6-.5-.7-1.2-1.1-2.5-1.4-8.6,0-11.4.3-.8,0-.8,1.3,0,1.2,2.8-.3,5.7-.4,8.5-.4s1.5,2.3,2.6,4.6c.7,1.4,3,2.7,4.2,3.8,1.2,1.1,2.5,2.2,3.8,3.1,3.4,2.3,7.5,3.6,11.5,4.2,8.2,1.2,18.1-.7,24.5-6.4,3.5-3.2,3.1-7.7,8.4-9.1,5.7-1.5,12.4-1.6,18.2-1.6,11.5,0,23.1,2.3,33.8,6.5,11.3,4.5,19.9,11.4,28.4,19.9,7.3,7.3,15.8,13.8,23.7,20.5,5.9,5,12.5,9.9,20.2,11.5,8.5,1.8,17.6-1.1,25.6-3.8,9.8-3.3,19.3-7.8,28.5-12.4s18.5-9.7,27.8-14.3c3.6-1.8,4-1.1,5.4,2.5.6,1.5,1.2,3,1.9,4.5,2.2,5,5,9.8,8,14.3,5.5,8.2,12,15.6,19,22.4,2.1,2.1,3.3,3,1.8,5.9-.9,1.7-1.8,3.4-2.8,5-1.8,3.1-3.8,6-6.2,8.7-4.7,5.1-10.7,8.8-16.3,12.8-8.6,6-17,12.2-26.3,17-10.1,5.2-20.9,7.6-31.7,10.7-10.1,2.8-20.3,5.4-30.8,6.2-12.2.9-24.8-.2-36.5-3.8-10.3-3.2-24.6-8-30-18.1-.3-.6-1.3-.2-1.1.5,5.5,20.8,8.1,42.2,7.5,63.6-.1,5.1-.9,10.2-.9,15.2s1.4,6.9,1.2,10.3c-.4,5.8-7,4.4-11,4.1-4.5-.3-9.1.3-13.6.8-21.4,2-42.9,4.5-64.4,4.5-21.3,0-42-4.2-63.2-5.9-9.2-.8-18.3-.6-27.6.2-7.8.6-16,1.4-23.8,0-8.9-1.5-14.1-6.2-17.5-14.4-2.9-7.1-4.8-14.6-7.1-21.8-6.3-19.7-8.3-40.5-8-61.1.3-19.2,2.7-38.2,10.9-55.8,8.8-18.8,23.3-33.8,42.1-42.7,19.2-9.1,40.8-11.7,61.8-12.2.8,0,.8-1.2,0-1.2h0Z"/>
      </g>
      <path class="cls-27" d="M253.5,632.4c5,16.7,22.7,26.1,39.3,24.5,6.5-.6,13.2-2.5,17.8-7.5,4.1-4.6,5.9-10.7,7.5-16.4.2-.7-.9-1.1-1.2-.3-1.4,4.9-2.9,10.2-6,14.4-4.3,5.9-11.3,8-18.3,8.7-16.1,1.6-33.2-7.4-38.1-23.6-.2-.7-1.4-.4-1.2.3h0Z"/>
      <path class="cls-27" d="M377.4,747.4c-2.6-3.6-4.8-7.5-6.9-11.4-.4-.7-1.4,0-1,.6,2.1,3.9,4.3,7.8,6.9,11.4.4.6,1.5,0,1-.6h0Z"/>
      <path class="cls-27" d="M520,659.1c7.9,20.7,18.3,40.2,35.5,54.7.6.5,1.4-.3.8-.8-17.1-14.4-27.4-33.7-35.2-54.2-.3-.7-1.4-.4-1.2.3h0Z"/>
      <path class="cls-27" d="M254.8,634.8c.7.2,1.5.3,2.2.2.8,0,1.6-.3,2.5-.3.8,0,.8-1.1,0-1.2-.7,0-1.3.1-2,.2-.8,0-1.5,0-2.3-.1s-1.1,1-.3,1.2h0Z"/>
      <path class="cls-27" d="M262.9,635.3c-1.2.7-2.5,1.1-3.9,1.3-.8.1-.4,1.3.3,1.2,1.5-.2,2.9-.7,4.2-1.5.7-.4,0-1.4-.6-1h0Z"/>
      <path class="cls-27" d="M259.5,642.4c1.2,0,2.4-.7,3.5-1.2.7-.3,0-1.3-.6-1-.9.4-2,1.1-2.9,1-.8,0-.8,1.2,0,1.2h0Z"/>
      <path class="cls-27" d="M267.2,640.2c-.4,1-.9,2.1-1.8,2.7-.6.4,0,1.4.6,1,1.2-.8,1.8-2.1,2.4-3.4.3-.7-.9-1-1.2-.3h0Z"/>
      <path class="cls-27" d="M266.6,649c.2-1.1.7-2,1.4-2.7.5-.5-.3-1.4-.8-.8-.9.9-1.5,2-1.7,3.2-.1.8,1,1.1,1.2.3h0Z"/>
      <path class="cls-27" d="M272.4,644.7c.1.5-.1,1.1-.3,1.6s-.3,1-.5,1.6c-.2.7.9,1.1,1.2.3.4-1.2,1-2.5.8-3.8-.2-.8-1.3-.4-1.2.3h0Z"/>
      <path class="cls-27" d="M274.8,653.3l.6-2.4c.2-.7-1-1.1-1.2-.3-.2.8-.4,1.6-.6,2.4-.2.7,1,1.1,1.2.3h0Z"/>
      <g>
        <path class="cls-1" d="M329.2,799.1c16.2-4.8,32.5-10.8,49.4-12,3-.2,6.2-1.1,9.1-.3,4.8,1.2,7.2,4.8,11.2,9.2,8.2,9.3,18.8,16.6,25.8,26.8,1.1,1.7,2,3.3,1.8,4.3,0,.3-1.2,2.9-3,3.2s-3.7,0-5.6-.4c-3.3-.8-6.2-2.5-9.2-4.2-2.3-1.3-4.8-4.5-6.9-6.2-5.8-4.5-11.1-7.4-16.9-11.9,2,2.4,4.1,4.8,6.1,7.3,2.1,2.5,4.6,4.3,4.9,7.5.2,2.5-.8,7.4-1.2,7.9-.2.4-1.3,1.1-1.7,1.3-.6.3-1.3,0-1.9-.4-4.9-2.9-9.8-6.1-14.5-9.3,3.8,1.6,6.8,4.7,10.2,7.1,3,2.1,6.7,4.2,5.8,7.7-.1.4-.3.9-.6,1.2-1.1,1.1-2.8,0-4.3,0-4.2.1-8.1.3-12.1.5-2.7.1-5.5-.3-8.2-.6-12.3-1-24.7,2.8-37,1.2-.3,0-.6,0-.9-.3-.7-.5-.5-1.5-.3-2.2,1-4.7.8-9.5.6-14.2-.4-7.3-.7-14.6-1.1-21.9"/>
        <path class="cls-23" d="M329.3,799.4c13.2-4,26.4-8.6,40-10.9,7-1.2,17-3.7,23,1,4.7,3.7,8.2,8.9,12.5,13.1,4.1,3.9,8.4,7.7,12.4,11.7,2.4,2.5,4.7,5.1,6.7,7.9.9,1.3,2.5,4.1,1.7,5.8-1.6,3.3-6.8,1.7-9.3,1-6-1.9-9.8-5.9-14.5-9.8-5.3-4.4-11.4-7.7-16.9-11.9-.3-.3-.7.3-.4.6,3.8,4.5,11.2,10.5,10.9,16.8,0,.5-.3,3.7-.7,4.5-1.3,2.2-3.2,1.5-5.1.8-2.8-1-5.6-3.5-8.1-5.1.2.2-3.9-2.7-3.8-1.9,0,0,5.6,3.9,5,3.5,1.6,1.3,3.3,2.5,4.9,3.7,1.1.7,2.2,1.6,3.1,2.5-.7,1.7-1.4,3.4-2.1,5.1,0,0-3.7,0-3.1,0-3.2,0-6.3.3-9.5.4-6.5.2-12.8-.9-19.2-.4-6.8.5-13.5,1.5-20.4,1.5-1.2,0-3.5.4-4.6-.2-4.1-2.2-2-3.4-2.2-5.9-.2-3.2.2-6.6,0-9.8-.3-7.6-.8-15.2-1.1-22.8,0-.5-.7-.5-.7,0,.4,7.6.8,15.2,1.1,22.8.2,3.3.3,6.6,0,9.8-.1,1-1.4,4.7-.2,5.9,2.1,2,9.7.9,12.2.7,7.1-.4,14.2-1.6,21.3-1.6,6.3,0,12.5.7,18.8.4,2.9-.1,5.7.2,8.5.2,1,0,1.5.2,2.3-.6,2.3-2.2-.1-5.4-1.8-6.9-3.9-3.5-8.9-7.3-13.6-9.6-.4-.2-.7.4-.4.6,4,2.7,8,5.3,12,7.8,1.8,1.1,3.1,2.5,5.2,1.6,3-1.4,3.1-7.9,2.3-10.6-.7-2.4-2.7-4.1-4.3-5.9-1.4-1.6-2.7-3.3-4.1-4.9-3.2-3.5,1.4.8,2.5,1.6,4.1,2.8,8.6,5.4,12.3,8.7,2.6,2.3,4.6,4.6,7.6,6.3,3.7,2.1,11.8,6.5,15.6,2.5,3.3-3.5-1.3-7.9-3.5-10.7-5.3-6.5-11.9-11.8-17.8-17.7-4.6-4.5-8.7-11.8-15-14.2-4.2-1.6-9.1-.3-13.4.1-4.7.5-9.4,1.3-14,2.4-11.1,2.5-21.8,6.2-32.7,9.4-.4.1-.2.8.2.7h0Z"/>
      </g>
      <path class="cls-27" d="M278,647c0,1,0,2-.2,3-.2.7,1,1.1,1.2.3.3-1.1.3-2.2.3-3.3,0-.8-1.2-.8-1.2,0h0Z"/>
      <path class="cls-27" d="M282.5,655c-.1-.7-.2-1.3,0-2,0-.3-.3-.6-.6-.6s-.6.3-.6.6c0,.8,0,1.6.1,2.3.2.8,1.3.4,1.2-.3h0Z"/>
      <path class="cls-27" d="M284,648.5c.5,1,.6,2.1.5,3.2,0,.8,1.1.8,1.2,0,.1-1.3-.1-2.6-.7-3.8-.3-.7-1.3,0-1,.6h0Z"/>
      <path class="cls-27" d="M290,655.9c-.6-1.1-.8-2.3-.9-3.5,0-.8-1.2-.8-1.2,0,0,1.4.3,2.9,1,4.1.4.7,1.4,0,1-.6h0Z"/>
      <path class="cls-27" d="M290.9,648.5c.9,1.1.7,2.7.6,4,0,.8,1.1.8,1.2,0,.2-1.7.2-3.4-.9-4.8-.5-.6-1.3.2-.8.8h0Z"/>
      <path class="cls-27" d="M297.7,655c-.2-1.1-.7-2.3-1.1-3.3-.3-.7-1.3,0-1,.6.4,1,.9,2,1,3,.1.8,1.2.4,1.2-.3h0Z"/>
      <path class="cls-27" d="M297.5,647c0,.9.2,1.9.6,2.7.3.7,1.4,0,1-.6s-.5-1.4-.4-2.1-1.2-.8-1.2,0h0Z"/>
      <path class="cls-27" d="M305,651.8c-.3-.8-.6-1.6-1-2.5-.3-.7-1.4-.4-1.2.3.3.8.6,1.6,1,2.5.3.7,1.4.4,1.2-.3h0Z"/>
      <path class="cls-27" d="M303.5,644.2c.6.9,1.1,1.8,1.6,2.8.3.7,1.3,0,1-.6-.4-1-1-1.9-1.6-2.8-.4-.6-1.5,0-1,.6h0Z"/>
      <path class="cls-27" d="M311,646.9c-.9-.5-1.1-1.8-1.5-2.7-.3-.7-1.4,0-1,.6.5,1.1.8,2.5,2,3.1.7.4,1.3-.7.6-1h0Z"/>
      <path class="cls-27" d="M308.3,639.4c.6.4,1,1.1,1.4,1.7s1.4,0,1-.6c-.4-.8-1-1.6-1.8-2.1-.3-.2-.7,0-.8.2-.2.3,0,.6.2.8h0Z"/>
      <path class="cls-27" d="M314.9,639.3c0,0-.1,0-.2-.2-.2-.2-.4-.3-.6-.5-.6-.4-1.2-.9-1.8-1.3s-1.2.6-.6,1c.9.6,1.7,1.3,2.6,2,.6.5,1.2-.6.6-1h0Z"/>
      <path class="cls-27" d="M311.5,635.4c.7.2,1.2.6,1.5,1.2.3.7,1.4.4,1.2-.3-.4-1-1.2-1.8-2.3-2.1-.7-.2-1.1,1-.3,1.2h0Z"/>
      <path class="cls-27" d="M317,633.5c-.6-.2-1.1-.3-1.7-.5-.7-.2-1,.9-.3,1.2.6.2,1.1.3,1.7.5.7.2,1-.9.3-1.2h0Z"/>
      <path class="cls-27" d="M317.3,632.8c.8,0,.8-1.2,0-1.2s-.8,1.2,0,1.2h0Z"/>
      <path class="cls-27" d="M317.3,631.9s0,.2,0,0c0,0,0,.1,0,.2,0,.1,0,.2-.1.4-.1.3.1.7.4.7.3,0,.6,0,.7-.4s.2-.7.2-1c0-.3-.3-.6-.6-.6-.3,0-.6.3-.6.6h0Z"/>
      <path class="cls-27" d="M438.2,688.9c5.3,10.1,1.8,21.6,2.6,32.4,0,.8,1.2.8,1.2,0-.8-11.1,2.7-22.6-2.7-33-.4-.7-1.4,0-1,.6h0Z"/>
      <path class="cls-27" d="M439,689.4c6.4,6.6,10.9,13.4,12.7,22.5.2.8,1.3.4,1.2-.3-1.8-9.3-6.5-16.3-13-23.1-.5-.6-1.4.3-.8.8h0Z"/>
      <g>
        <path class="cls-24" d="M209.5,770c11.4,0,22.9.5,34.3,1.1,26.1,1.5,51.5,5.2,77.3,9.5,3.5.6,7,1.1,10.4,1.7,2.1.4,7.2.4,8.7,1.9,2.9,2.8,1.2,14.6,1.2,18.8,0,6.5.2,13.1.6,19.6.1,1.9,2,19.1,1.3,19.4-3.1,1.7-6.9,1-10.4,1.4-18,2.1-34.4,2.7-51.6,1.9-19.4-.9-38.9-3.3-58.3-4.2-6.5-.3-13.1-.6-19.6-1.1-5.6-.4-11.5-1-16.8.8-9.8,3.3-24.4-11.4-25.3-17.1"/>
        <path class="cls-27" d="M209.5,770.6c29.6,0,59,2.6,88.3,6.9,12.3,1.8,24.6,4.2,37,5.7,7.5.9,6.8,6.8,6.5,12.9-.3,4.9-.5,9.8-.3,14.7.2,8.4,1.2,16.7,1.8,25.1,0,1.3.6,3.5.2,4.8-.7,2.5-6.2,1.8-8.5,2-7.1.4-14.1,1.4-21.2,1.8-28.3,1.7-56.2-2-84.4-3.7-7.8-.5-15.7-.7-23.5-1.3-3.8-.3-7.5-.7-11.3-.5-3,0-5.6,1-8.6,1.5-8.6,1.5-21.8-8.4-23.7-16.9-.2-.8-1.3-.4-1.1.3,1.6,7,9.9,13.5,16.1,16.3,3.3,1.5,6.5,2,10,1.2,8.2-1.9,16.3-.8,24.5-.3,32.4,1.8,65,6.3,97.4,4.9,7.8-.3,15.5-1.1,23.3-1.8,2.6-.3,10.2.8,12-1.9,1.1-1.7,0-6.4-.2-8.3-.3-3.6-.7-7.2-1-10.8-.6-7-.9-14.2-.6-21.2.2-4.6.9-9.3.2-13.8-.5-3.2-1.5-4.8-4.8-5.6-6.2-1.4-12.8-1.9-19.1-2.9-36.1-5.9-72.2-10-108.9-10.1-.8,0-.8,1.2,0,1.2h0Z"/>
      </g>
      <path class="cls-27" d="M215.4,769.6c-.3-9.1-1.7-17.9-4.2-26.6-.2-.7-1.4-.4-1.2.3,2.5,8.6,3.9,17.3,4.2,26.3,0,.8,1.2.8,1.2,0h0Z"/>
      <path class="cls-27" d="M333.1,782.9c-1,20.3.1,40.6,3.3,60.7.1.8,1.3.4,1.2-.3-3.2-20-4.2-40.2-3.3-60.4,0-.8-1.2-.8-1.2,0h0Z"/>
      <path class="cls-27" d="M334.2,788.5c.7-.2,1.4-.4,2.1-.4s.8-1.2,0-1.2-1.7.1-2.5.4c-.7.2-.4,1.4.3,1.2h0Z"/>
      <path class="cls-27" d="M341.1,790.5c-1,.6-2.3.7-3.5.6-.8,0-.8,1.1,0,1.2,1.4.1,2.8,0,4.1-.8.7-.4,0-1.4-.6-1h0Z"/>
      <path class="cls-27" d="M334.1,796.4l3.3-.5c.8-.1.4-1.3-.3-1.2-1.1.2-2.2.3-3.3.5-.8.1-.4,1.3.3,1.2h0Z"/>
      <path class="cls-27" d="M340.9,798.7c-1.3.3-2.6.5-3.9.6-.8,0-.8,1.2,0,1.2,1.4-.1,2.8-.3,4.2-.7.7-.2.4-1.3-.3-1.2h0Z"/>
      <path class="cls-27" d="M334.2,806.9c1,0,2,0,3.1,0,.8,0,.8-1.2,0-1.2-1,0-2,0-3.1,0-.8,0-.8,1.1,0,1.2h0Z"/>
      <path class="cls-27" d="M340.9,811.3c-1.7,0-3.4.5-5,.1-.7-.2-1.1,1-.3,1.2,1.8.4,3.6,0,5.3,0,.8,0,.8-1.2,0-1.2h0Z"/>
      <path class="cls-27" d="M334.8,819.5c.8,0,1.4-.1,2.2,0s1.5-.2,2.2,0,.8-1.1,0-1.2-1.5.2-2.2,0-1.4,0-2.1,0-.8,1.2,0,1.2h0Z"/>
      <path class="cls-27" d="M341.3,822.7c-1.1.2-2.2.3-3.3.4-.8,0-.4,1.2.3,1.2,1.1-.2,2.2-.3,3.3-.4.8,0,.4-1.2-.3-1.2h0Z"/>
      <path class="cls-27" d="M335.6,827.8c1.5,0,2.9-.3,4.3-.3.8,0,.8-1.2,0-1.2-1.5,0-2.9.3-4.3.3-.8,0-.8,1.2,0,1.2h0Z"/>
      <path class="cls-27" d="M338.7,832.2c1.4,0,2.7-.1,4.1-.2.8,0,.8-1.2,0-1.2-1.4,0-2.7.1-4.1.2-.8,0-.8,1.2,0,1.2h0Z"/>
      <path class="cls-27" d="M336.5,835.5l2.7-.2c.8,0,.8-1.2,0-1.2l-2.7.2c-.8,0-.8,1.2,0,1.2h0Z"/>
      <path class="cls-27" d="M339.8,837.9c1.3-.3,2.7-.3,4-.7.7-.3.4-1.4-.3-1.2-1.3.5-2.7.4-4,.7-.7.2-.4,1.3.3,1.2h0Z"/>
      <path class="cls-27" d="M338.1,841.5c.8-.3,1.6-.6,2.4-.7.8-.1.4-1.3-.3-1.2-.9.2-1.8.4-2.7.8-.7.3,0,1.3.6,1h0Z"/>
      <path class="cls-27" d="M523.3,663.8c.4-.5.8-.9,1.4-1.2.7-.4,0-1.4-.6-1-.6.3-1.2.8-1.7,1.4-.2.2-.2.6,0,.8.2.2.6.2.8,0h0Z"/>
      <path class="cls-27" d="M528.7,664.7c-.8.7-1.6,1.4-2.4,2-.6.4,0,1.5.6,1,.9-.6,1.8-1.3,2.7-2.1.5-.5-.3-1.4-.8-.8h0Z"/>
      <path class="cls-27" d="M526.7,673.1c.8-.3,1.7-.7,2.4-1.2.7-.4,0-1.4-.6-1-.7.4-1.4.8-2.2,1.1-.7.3-.4,1.4.3,1.2h0Z"/>
      <path class="cls-27" d="M532.6,672.3l-1.8,1.7c-.6.5.3,1.4.8.8.6-.6,1.2-1.1,1.8-1.7.6-.5-.3-1.4-.8-.8h0Z"/>
      <path class="cls-27" d="M530.2,679.6c1.1-.2,2.1-.6,3-1.1.7-.3,0-1.4-.6-1-.9.5-1.8.8-2.8,1-.7.2-.4,1.3.3,1.2h0Z"/>
      <path class="cls-27" d="M535.9,678.1c-.5.8-1.2,1.5-2,2-.6.4,0,1.4.6,1,1-.6,1.8-1.4,2.4-2.4.4-.6-.6-1.2-1-.6h0Z"/>
      <path class="cls-27" d="M534.1,686.5c.9-.2,1.7-.7,2.4-1.3.6-.5-.3-1.3-.8-.8s-1.2.8-1.9,1-.4,1.3.3,1.2h0Z"/>
      <path class="cls-27" d="M540.2,684.3c-.7.7-1.5,1.3-2.2,1.9-.6.4,0,1.5.6,1,.9-.6,1.7-1.3,2.5-2.1.5-.5-.3-1.4-.8-.8h0Z"/>
      <path class="cls-27" d="M538.3,692.8c1.1-.8,2.1-1.5,3.2-2.3.6-.4,0-1.5-.6-1-1.1.8-2.1,1.5-3.2,2.3-.6.4,0,1.5.6,1h0Z"/>
      <path class="cls-27" d="M544.9,690.9c-.6.8-1.3,1.5-2.2,1.9-.7.4,0,1.4.6,1,1-.6,1.9-1.4,2.6-2.4.5-.6-.6-1.2-1-.6h0Z"/>
      <path class="cls-27" d="M542.8,698.9c1.2-.6,2.3-1.3,3.4-2.1.6-.4,0-1.5-.6-1-1.1.8-2.2,1.5-3.4,2.1-.7.3,0,1.4.6,1h0Z"/>
      <path class="cls-27" d="M547.7,704.1c1-.5,2-.9,2.9-1.4.7-.3,0-1.4-.6-1-1,.5-2,.9-2.9,1.4-.7.3,0,1.4.6,1h0Z"/>
      <path class="cls-27" d="M549.9,696.8c-1,.9-2,1.6-3.2,2.2-.7.3,0,1.4.6,1,1.2-.7,2.4-1.4,3.4-2.4.6-.5-.3-1.3-.8-.8h0Z"/>
      <path class="cls-27" d="M555.3,701.3c-1,.9-2.2,1.7-3.5,2.1-.7.3-.4,1.4.3,1.2,1.5-.6,2.9-1.4,4.1-2.4.6-.5-.3-1.3-.8-.8h0Z"/>
      <path class="cls-27" d="M554.4,705.9c-1,.9-2.2,1.7-3.5,2.1-.7.3-.4,1.4.3,1.2,1.5-.6,2.9-1.4,4.1-2.4.6-.5-.3-1.3-.8-.8h0Z"/>
      <path class="cls-23" d="M375.2,826.9c1.3-3,2-6,2-9.2,0-.5-.7-.5-.7,0,0,3.1-.7,6-1.9,8.9-.2.4.4.8.6.4h0Z"/>
      <path class="cls-23" d="M383.9,810.3c.3-1.5.7-2.9,1-4.4,0-.4-.6-.6-.7-.2-.3,1.5-.7,2.9-1,4.4,0,.4.6.6.7.2h0Z"/>
      <path class="cls-23" d="M386.2,787.7c.7,4.5-1.9,8.1-4.5,11.4-.3.4.2.9.5.5,2.8-3.5,5.5-7.3,4.7-12.1,0-.4-.8-.3-.7.2h0Z"/>
      <path class="cls-23" d="M419.8,829.7c.5,0,.5-.7,0-.7s-.5.7,0,.7h0Z"/>
      <path class="cls-12" d="M658.2,428.6v-9.5c0-.8-.6-1.4-1.4-1.4H103.9l2.5,408.3c4.3,15.3,10.2,11.2,21.2,13.2h510.2c17.8,0,15.3-3.8,20.4-9v-379.3h9.2v377.2c0,24.7-19.6,44.7-43.8,44.7H138.5c-24.2,0-43.8-20-43.8-44.7v-432.3c0-24.7,19.6-44.7,43.8-44.7h485c24.2,0,43.8,20,43.8,44.7v32.8h-9.2,0Z"/>
      <g>
        <line class="cls-7" x1="137.5" y1="375.1" x2="164.7" y2="400.2"/>
        <line class="cls-7" x1="134.8" y1="400.2" x2="164.7" y2="375.1"/>
        <g>
          <rect class="cls-7" x="181.7" y="381.5" width="28.5" height="22.1"/>
          <rect class="cls-7" x="188.5" y="370" width="42.8" height="22.6"/>
        </g>
        <line class="cls-7" x1="244.9" y1="387.6" x2="282.9" y2="387.6"/>
      </g>
      <path class="cls-19" d="M428.5,521.5l-42.2,55.7,134-55.4h113.4c31,0,56.2-19.8,56.2-44.2v-20.2c0-24.4-25.2-44.2-56.2-44.2h-199c-31,0-56.2,19.8-56.2,44.2v20.2c0,22.7,21.8,41.4,49.9,43.9Z"/>
      <g class="cls-21">
        <text class="cls-22" transform="translate(401.2 497.3) scale(1.1 1)"><tspan x="0" y="0">GAME</tspan></text>
      </g>
      <g class="cls-21">
        <text class="cls-20" transform="translate(818.8 179) scale(1.1 1)"><tspan x="0" y="0">WEB</tspan></text>
      </g>
    </g>
  </g>
</svg>