<?xml version="1.0" encoding="UTF-8"?>
<svg xmlns="http://www.w3.org/2000/svg" version="1.1" xmlns:xlink="http://www.w3.org/1999/xlink" viewBox="0 0 1038.6 1513.6">
  <defs>
    <style>
      .cls-1, .cls-2, .cls-3, .cls-4, .cls-5, .cls-6, .cls-7 {
        fill: none;
      }

      .cls-1, .cls-3, .cls-8, .cls-4, .cls-6, .cls-7 {
        stroke-miterlimit: 10;
      }

      .cls-1, .cls-8 {
        stroke-width: 4px;
      }

      .cls-1, .cls-8, .cls-4 {
        stroke: #181368;
      }

      .cls-9, .cls-8 {
        fill: #f5e2c2;
      }

      .cls-10, .cls-11 {
        fill: #fff;
      }

      .cls-10, .cls-12, .cls-5 {
        isolation: isolate;
      }

      .cls-10, .cls-5 {
        font-family: DejaVuSans-Bold, 'DejaVu Sans';
        font-size: 265px;
        font-weight: 700;
      }

      .cls-13 {
        fill: #181368;
      }

      .cls-3 {
        stroke-dasharray: 0 0 12.1 12.1;
      }

      .cls-3, .cls-6, .cls-7 {
        stroke: #000;
        stroke-width: 3px;
      }

      .cls-4 {
        stroke-width: 2.5px;
      }

      .cls-14 {
        fill: #cdb3b7;
      }

      .cls-15 {
        fill: #5660f3;
      }

      .cls-5 {
        stroke: #fff;
        stroke-width: 1.1px;
      }

      .cls-16 {
        clip-path: url(#clippath);
      }

      .cls-7 {
        stroke-dasharray: 0 0 11.8 11.8;
      }
    </style>
    <clipPath id="clippath">
      <ellipse class="cls-2" cx="523.4" cy="984.6" rx="111.5" ry="118"/>
    </clipPath>
  </defs>
  <!-- Generator: Adobe Illustrator 28.6.0, SVG Export Plug-In . SVG Version: 1.2.0 Build 709)  -->
  <g>
    <g id="katman_1">
      <path class="cls-15" d="M379.6,86.8c59.7-57.1,148.5-41,219.7-9.5,54.5,24.6,115.9,60.5,112.7,125.5-1.6,29.4-14.8,56.9-26,84-24.9,54.2-29.3,109,8.4,158.4,64.9,88.4,211.5,122.6,276.4,193,21.3,23,33.6,51.8,36.2,83.3,3.1,37.4-3.1,89.5-33.7,112.4-51.9,34.6-152.4-47.6-219.9-74.7-12.4-5.5-25.1-10.5-37.8-14.6-22-7.1-44.5-11.6-67.5-12.6-44.2-2.5-80.9,11.5-119.1,26.1-43,16.1-83.8,3.7-123.5-21.1-26.9-16.5-53.3-38-76-60.6-16.8-16.8-32.4-34.8-46.8-53.7-34.3-46-62.7-97.5-115.2-123.8-26-14.1-55.6-22.1-83.4-31.8-40.8-13.3-82.2-42.4-55.9-87.4,29.3-45.8,92.7-62.7,144.5-67.4,48.3-5,100.8,9,146.8,6.5,28.5-1.8,63.1-11.6,74.2-40.3,13.9-39.8-34.1-72.5-40.1-113.8-5.8-28.4,5.2-57.3,25.7-77.7l.2-.2h0Z"/>
      <path class="cls-15" d="M580.8,1138.3h-128.1c-70.7,0-128.1,66.9-128.1,149.4s-8.1,149.4,62.6,149.4h274.5c70.7,0,47.1-66.9,47.1-149.4s-57.3-149.4-128.1-149.4h0Z"/>
      <g>
        <path class="cls-9" d="M491.7,1054.9l2.6,92.2c0,4.3,2.4,8,5.7,8.7l47.1,3.5c3.8.8,7.3-2.6,7.8-7.5l-.4-72.6-62.8-24.3h0Z"/>
        <path class="cls-4" d="M491.7,1054.9l2.6,92.2c0,4.3,2.4,8,5.7,8.7l47.1,3.5c3.8.8,7.3-2.6,7.8-7.5l-.4-72.6-62.8-24.3h0Z"/>
      </g>
      <g>
        <ellipse class="cls-9" cx="523.4" cy="984.6" rx="111.5" ry="118"/>
        <g class="cls-16">
          <g>
            <circle class="cls-13" cx="528.1" cy="837.1" r="53.7"/>
            <circle class="cls-13" cx="294.7" cy="941.3" r="53.7"/>
            <circle class="cls-13" cx="757" cy="941.3" r="53.7"/>
            <path class="cls-13" d="M653.7,887.7c-9.2-.5-17.9,1.4-25.6,5.1.8-3.7,1.2-7.6,1.2-11.5,0-29.7-24-53.7-53.7-53.7s-48.9,19.5-53,45.1c-4.1-25.6-26.3-45.1-53-45.1s-53.7,24-53.7,53.7.3,6,.7,8.8c-5.9-1.8-12.2-2.7-18.8-2.4-27.6,1.4-49.9,24-50.9,51.6-1.1,30.6,23.3,55.7,53.7,55.7s53.7-24,53.7-53.7h0c0-4.3,3.7-7.5,7.8-6.9,2.4.3,5,.5,7.5.5,26.7,0,48.9-19.5,53-45.1,4.1,25.6,26.3,45.1,53,45.1s8.2-.5,12-1.4c4.9-1.1,9.6,2.6,9.6,7.6h0c0,29.8,24,53.8,53.7,53.8s54.8-25.1,53.7-55.7c-1-27.6-23.3-50.2-50.9-51.6h0Z"/>
          </g>
        </g>
        <ellipse class="cls-1" cx="523.4" cy="984.6" rx="111.5" ry="118"/>
      </g>
      <g>
        <circle class="cls-14" cx="580.4" cy="1037.6" r="34"/>
        <circle class="cls-14" cx="466.4" cy="1037.6" r="34"/>
      </g>
      <path class="cls-8" d="M840.2,1012.1l-32.9-74.5c-1-2.2,1-4.5,3.3-4l23.9,5.8-33.6-70c-.4-.9.5-1.9,1.4-1.4,8,3.8,31.9,17.1,40.5,41.7,33.4-9,63.9-17.3,63.9-17.3l23.5,110.9-89.9,8.8h0Z"/>
      <g>
        <path class="cls-11" d="M496.6,1036.4s22,24.3,43.9,2.3"/>
        <g>
          <ellipse class="cls-13" cx="473.4" cy="983.1" rx="7.1" ry="11.9"/>
          <ellipse class="cls-13" cx="568.5" cy="983.1" rx="7.1" ry="11.9"/>
          <path class="cls-13" d="M490,952.4c-6.9.6-12.7,1-18.9,3.1-5,1.6-9.2,4.2-14.1,6.3l-.4-.3c1-1.2,1.9-2.5,3-3.7.6-.6,1.9-1.9,2.6-2.4,2.8-2.2,6-4.1,9.4-5.1,6.1-1.8,12.9-1.1,18.6,1.6l-.2.4h0Z"/>
          <path class="cls-13" d="M556.5,952c10-11.7,30.9-5.4,33.6,9.6l-.4.3c-1.7-2-3.7-4.1-5.7-5.8-6.3-5.1-15-7-22.9-5-1.5.3-3,.8-4.4,1.4l-.2-.4h0Z"/>
          <path class="cls-13" d="M523.6,975.9c6,13.3,7.9,27.9,7.9,42.4v4.2c-4.7-.6-9.5-1.3-14.1-2.5-1.2-.3-2.4-.7-3.6-1.1v-.5h7.1c0-.1,7.1-.2,7.1-.2l-.4.4-1.2-10.7c-.7-6.2-1.6-15.1-2.3-21.4-.4-3.6-.7-7.1-1.1-10.7h.5c0,0,0,0,0,0h0Z"/>
        </g>
      </g>
      <path class="cls-15" d="M608.6,1142.9c41.8,24,87.1,46.4,133.7,57,16.4,3.3,34.5,6.1,49,.6,15-7.3,23.3-34.5,27.4-51.3,9.9-44.1,10-91,6.9-136.2l-.3-3.5-.3-2.9,116.7-12.4c4.3,48.6,3.6,97.2-3.9,145.6-15.2,99.7-67.8,184.9-181.4,171.9-69.7-8.6-137.4-45.8-193.8-85-1.9-1.4-5.8-4.2-7.8-5.6l53.8-78.1h0Z"/>
      <path class="cls-9" d="M492.3,1138.3l18.8,14.2c10.8,8.2,24.6,7.7,34.9-1.1l15.4-13.1h-69.1Z"/>
      <path class="cls-15" d="M561.4,1138.3l-1.5,34.8h-72.4l4.8-34.8,18.1,13.7c11.2,8.5,25.4,8,36.2-1.2l14.8-12.6h0Z"/>
      <path class="cls-1" d="M866,958l-4.1.9c-3.4.7-6.8-1.2-7.8-4.5l-11.4-34.8,19.8-5.4,8.7,35.6c.9,3.7-1.4,7.4-5.1,8.2h0Z"/>
      <path class="cls-1" d="M888.1,953.2l-8.4,1.8c-3.8.8-7.7-1.6-8.6-5.4l-8.6-35.4,23.3-6.3,7.8,36.7c.8,3.9-1.7,7.8-5.6,8.6h0Z"/>
      <path class="cls-1" d="M909.6,948.6l-7.8,1.7c-3.7.8-7.2-1.5-8-5.2l-7.9-37.2,20.8-5.6,8.1,38.3c.8,3.6-1.5,7.2-5.2,8h0Z"/>
      <path class="cls-8" d="M168,1021.9l32.9-74.5c1-2.2-1-4.5-3.3-4l-23.9,5.8,33.6-70c.4-.9-.5-1.9-1.4-1.4-8,3.8-31.9,17.1-40.5,41.7-33.4-9-63.9-17.3-63.9-17.3l-23.5,110.9,90,8.8h0Z"/>
      <path class="cls-15" d="M453.4,1230.7c-65.3,47.3-164.7,102.2-248.1,90.2-136.5-21.3-147.5-202.4-139.3-311.7l.5-5.2,116.7,12.4-.3,2.9-.3,3.5c-3.1,45.2-3,92.1,6.9,136.2,4.4,17.5,10.7,38.5,23.8,49.2,2.6,2,5.7,3.1,9.6,3.9,43,7.5,111.9-24.8,151-45.1,8.5-4.5,17.4-9.5,25.7-14.3l53.8,78.1h0Z"/>
      <path class="cls-1" d="M142.2,958l4.1.9c3.4.7,6.8-1.2,7.8-4.5l11.4-34.8-19.8-5.4-8.7,35.6c-.9,3.7,1.4,7.4,5.1,8.2h0Z"/>
      <path class="cls-1" d="M120.1,953.2l8.4,1.8c3.8.8,7.7-1.6,8.6-5.4l8.6-35.4-23.3-6.3-7.8,36.7c-.8,3.9,1.7,7.8,5.6,8.6h0Z"/>
      <path class="cls-1" d="M98.7,948.6l7.8,1.7c3.7.8,7.2-1.5,8-5.2l8-37.2-20.8-5.6-8.1,38.3c-.8,3.6,1.5,7.2,5.2,8h0Z"/>
      <circle class="cls-13" cx="641.6" cy="955.2" r="35.5"/>
      <circle class="cls-13" cx="625.4" cy="890.8" r="35.5"/>
      <circle class="cls-13" cx="649.8" cy="919.7" r="35.5"/>
      <circle class="cls-13" cx="581.7" cy="866.6" r="35.5"/>
      <circle class="cls-13" cx="546.2" cy="851.7" r="35.5"/>
      <circle class="cls-13" cx="487.5" cy="861.9" r="35.5"/>
      <circle class="cls-13" cx="438" cy="884.3" r="35.5"/>
      <circle class="cls-13" cx="416.5" cy="913.2" r="35.5"/>
      <circle class="cls-13" cx="406.8" cy="961.7" r="35.5"/>
      <g>
        <polyline class="cls-6" points="827.9 794.9 827.9 800.9 821.9 800.9"/>
        <line class="cls-7" x1="810.1" y1="800.9" x2="177.4" y2="800.9"/>
        <polyline class="cls-6" points="171.5 800.9 165.5 800.9 165.5 794.9"/>
        <line class="cls-3" x1="165.5" y1="782.7" x2="165.5" y2="376.2"/>
        <polyline class="cls-6" points="165.5 370.1 165.5 364.1 171.5 364.1"/>
        <line class="cls-7" x1="183.3" y1="364.1" x2="816" y2="364.1"/>
        <polyline class="cls-6" points="821.9 364.1 827.9 364.1 827.9 370.1"/>
        <line class="cls-3" x1="827.9" y1="382.3" x2="827.9" y2="788.8"/>
      </g>
      <g>
        <g class="cls-12">
          <g class="cls-12">
            <text class="cls-10" transform="translate(245.9 437.4) rotate(30.8)"><tspan x="0" y="0">BBT</tspan></text>
          </g>
        </g>
        <g class="cls-12">
          <g class="cls-12">
            <text class="cls-5" transform="translate(258 451.6) rotate(30.8)"><tspan x="0" y="0">BBT</tspan></text>
          </g>
        </g>
      </g>
    </g>
  </g>
</svg>