<?xml version="1.0" encoding="UTF-8"?>
<svg xmlns="http://www.w3.org/2000/svg" version="1.1" xmlns:xlink="http://www.w3.org/1999/xlink" viewBox="0 0 1669.1 1087.1">
  <defs>
    <style>
      .cls-1, .cls-2, .cls-3, .cls-4, .cls-5, .cls-6 {
        stroke-miterlimit: 10;
      }

      .cls-1, .cls-3 {
        stroke: #2d1260;
      }

      .cls-1, .cls-4, .cls-5 {
        stroke-width: 2.5px;
      }

      .cls-1, .cls-7 {
        fill: #2d1260;
      }

      .cls-2 {
        stroke: #ecdae3;
      }

      .cls-2, .cls-8 {
        stroke-width: 12.7px;
      }

      .cls-2, .cls-8, .cls-3, .cls-4, .cls-9 {
        fill: none;
      }

      .cls-8 {
        stroke: #f4e6cf;
        stroke-linejoin: round;
      }

      .cls-8, .cls-3 {
        stroke-linecap: round;
      }

      .cls-3 {
        stroke-width: 1.9px;
      }

      .cls-4 {
        stroke: #d84200;
      }

      .cls-10 {
        fill-rule: evenodd;
      }

      .cls-10, .cls-11 {
        fill: #d84200;
      }

      .cls-5 {
        stroke: #5660f3;
      }

      .cls-5, .cls-12 {
        fill: #5660f3;
      }

      .cls-13 {
        fill: #190644;
      }

      .cls-6 {
        fill: #f5e2c2;
        stroke: #190644;
        stroke-width: 1.3px;
      }

      .cls-14, .cls-15, .cls-16, .cls-17, .cls-18 {
        isolation: isolate;
      }

      .cls-19 {
        fill: #fec28e;
      }

      .cls-20 {
        fill: #af057b;
      }

      .cls-15, .cls-16, .cls-17 {
        font-size: 126.9px;
      }

      .cls-15, .cls-16, .cls-17, .cls-18 {
        fill: #f7efe7;
        font-family: SegoePrint-Bold, 'Segoe Print';
        font-weight: 700;
      }

      .cls-16 {
        letter-spacing: 0em;
      }

      .cls-17 {
        letter-spacing: 0em;
      }

      .cls-21 {
        fill: #fd6a00;
      }

      .cls-22 {
        fill: #49208a;
      }

      .cls-23 {
        fill: #fb985e;
      }

      .cls-18 {
        font-size: 196.2px;
        letter-spacing: 0em;
      }

      .cls-24 {
        fill: #f5e3ca;
      }
    </style>
  </defs>
  <!-- Generator: Adobe Illustrator 28.6.0, SVG Export Plug-In . SVG Version: 1.2.0 Build 709)  -->
  <g>
    <g id="katman_1">
      <polygon class="cls-20" points="1407.4 1015.5 518.6 1015.5 518.6 996.7 1410.1 996.1 1407.4 1015.5"/>
      <g>
        <path class="cls-21" d="M821.2,555.4c-5.3,16.7-2.8,27.5-15.6,58.5,81.9-6.3,141.5-3.1,223.6-.5,39,1.2,23.2,1.2,51.9-.8-18.8-31.1-17.8-40.7-23.8-65.2s-6.6-50-13.4-74.1c-13-46.2-54.7-86.9-102.6-85.6-48.2,1.3-88.2,33-107,86.1l-13.2,81.6h0Z"/>
        <path class="cls-11" d="M820.4,555.2c-2.4,7.8-3.5,15.9-5,23.9-2.3,11.9-6,23.3-10.7,34.6-.2.4.3,1,.7,1,82.4-6.3,164.6-1.8,247.2.2,9.5.2,18.9-.8,28.4-1.5.6,0,1-.6.7-1.1-5.8-9.7-11.3-19.6-15.1-30.2-2.5-7-4.1-14.3-5.7-21.6-2.2-10.6-4.9-21-6.6-31.6-2.1-13-3.5-26.2-5.9-39.2-7.5-40.2-31.2-78.3-69.7-95.1-33.5-14.6-73.2-6.6-101.4,15.5-15.3,12-27.3,27.8-35.9,45.2-3,6-6.4,12.6-7.9,19.2-.7,3.2-1.1,6.6-1.6,9.8-3.8,23.7-7.6,47.3-11.5,71-.2.9,1.3,1.4,1.5.4,3.2-19.9,6.4-39.9,9.7-59.9,1.2-7.2,1.8-14.7,3.5-21.7,2.3-9.3,7.6-18.8,12.4-27.1,4.9-8.4,10.6-16.2,17.2-23.3,25.5-27.5,66-42.6,102.9-31.6,39.9,11.9,68.3,49.3,77.5,88.8,3.3,14.1,4.9,28.5,7,42.8,1.8,12.2,4.7,24.1,7.2,36.1,1.7,8,3.4,16,6.3,23.7,3.8,10.4,9.2,20.1,14.8,29.5.2-.4.4-.8.7-1.1-11.1.8-21.9,1.7-33.1,1.4-26.2-.8-52.4-1.7-78.7-2.5-25.9-.8-51.9-1.4-77.8-1.2-13.5,0-27.1.4-40.6.9-6.8.3-13.5.6-20.3,1-3.2.2-6.3.4-9.5.6-1.9.1-3.9.3-5.8.4-.9,0-7.3,1.2-7.8.6-1.3-1.6,2-7.2,2.7-9,1-2.9,2-5.8,2.9-8.7,1.5-5,2.7-10.1,3.7-15.2,1.6-8.2,2.6-16.4,5.1-24.4.3-.9-1.2-1.3-1.5-.4h0Z"/>
      </g>
      <g>
        <path class="cls-24" d="M1133,847.7c-4.2,15.5-3.5,40.8-2.5,64.8.8,17.4,1.7,34,1.2,45.6-.2,4.5,0,24.4-2.6,28.1-1.6,2.4-8.8,0-11.3,1.5-22.5,13.6-48.7,0-75,0-83.1-.3-166.3-.7-249.4-1-7.8,0-16.6-.6-21.5-6.6-7.4-9.1-.5-23.7-6.3-33.8-22.7,8-45.5,16-68.2,24-21.2,7.5-43.2,15.1-65.7,14.1-22.5-1-46.1-12.5-54.5-33.4-8.7-21.6.6-46,10.8-67,30.4-62.2,70.8-120.2,123.5-165.2,52.7-44.9,118.1-76.3,187-82.3,4-.4,10.1,2.8,12.7-.3,2-2.4.8-9.5.9-12.6.6-10.2,1.2-20.3,1.8-30.4,14.7,6.8,32.4,6.8,47.2,0,6.3-3,20.5-8.3,17.9-1.8l.8,7.2c-.9,12.7,1.8,37.6,10.1,37.4,9.1-.3,46.2,10.4,60.2,12.2,60.8,7.6,88.3,27.6,127.8,58.9"/>
        <path class="cls-13" d="M1132.2,847.5c-4,15.3-3.5,31.7-3.1,47.4.5,18.3,1.9,36.5,2,54.8,0,10.7.6,22.5-1.6,33-.7,3.5-2.9,3.9-6.3,3.8-2.5,0-4.3,0-6.5,1-8.9,4.2-17.5,6-27.4,5.4-9.1-.6-18-2.5-27-4-8.5-1.4-16.8-1.9-25.4-1.9-20.3,0-40.6-.2-60.9-.2-40.6-.2-81.2-.3-121.7-.5-21.8,0-44,.9-65.8-.4-4.5-.3-9.5-1-13.3-3.7-4.7-3.3-6-8.8-6.2-14.2-.3-7.5.9-15.1-2.7-22-.2-.3-.6-.5-.9-.3-26.3,9.2-52.5,18.7-78.9,27.7-24.1,8.2-50.6,15-75.5,6.4-10-3.5-19.4-9.2-26.2-17.4-8.5-10.2-11.4-23.4-10-36.5,1.4-13.4,6.6-26.2,12.3-38.2,5.2-11,10.9-21.8,16.8-32.4,47.3-85.2,117-160.7,209.1-197.2,25.3-10.1,51.8-17,78.9-20,3-.3,6-.8,8.9-.5,2.3.2,4.7,1,7,.9,3.1-.2,4.6-1.8,5.1-4.9.9-5.2,0-11.2.4-16.5.5-7.9.9-15.8,1.4-23.8l-1.2.7c12,5.3,25.5,6.7,38.3,3.4,5.5-1.4,10.5-4.1,15.8-6,2.2-.8,4.5-1.6,6.9-2,2.7-.4,3.3.8,3.8,3.1,1.7,8.2.3,16.9,1.5,25.2.8,5.3,2,17.1,8.6,19,2.8.8,6.2.5,9.1,1,4.6.8,9.1,1.8,13.6,2.9,10.4,2.4,20.8,5.1,31.2,7.2,11.6,2.3,23.5,3.4,35.1,6,12.1,2.8,24.1,6.6,35.4,11.6,23.7,10.5,44.3,26.4,64.4,42.4.8.6,1.8-.5,1.1-1.1-17.6-13.9-35.4-27.9-55.5-38.2-21.6-11.1-45.2-17.2-69.2-20.5-19.9-2.7-38.9-9.4-58.8-12.2-3.3-.5-6.5.1-8.7-2.7-2.9-3.8-3.8-9.4-4.6-13.9-.9-5.5-1.3-11.2-1.2-16.8,0-3.5-.6-7-.6-10.4,0-2.2.5-3.6-2.2-4.2-4.2-.9-9.8,1.9-13.5,3.4-7.4,3.1-14.3,5.8-22.4,6.4-9.4.7-18.8-1-27.4-4.8-.5-.2-1.1,0-1.2.7-.7,11.1-2.2,22.6-1.8,33.7,0,2.1.7,5.4-.2,7.4-1.7,4.1-6.6,2.1-9.5,1.7-4.6-.6-9.5.4-14,.9-20.5,2.6-40.7,7.4-60.3,14.1-39.6,13.5-76.3,34.7-108.8,60.9-32.8,26.6-61.2,58.4-85.3,93-12.3,17.6-23.4,35.9-33.7,54.7-10.2,18.8-21.5,38.7-25.5,60-3.4,18.2.7,36.6,14.8,49.2,13.1,11.7,31,16.7,48.3,16.4,23.5-.4,45.8-9.1,67.7-16.8,11.7-4.1,23.3-8.2,35-12.3,5.5-1.9,11.1-3.9,16.6-5.8,2.4-.8,7.5-3.8,9.5-1.3,1.5,1.9,1.3,5.7,1.4,8.1.3,7.8-1.4,16.8,3.8,23.4,4.6,5.8,12.5,6.7,19.4,6.9,24.8.8,49.8.2,74.6.3,50.9.2,101.8.4,152.7.6,12.3,0,24.9-.6,37.2,1,10.9,1.4,21.6,4,32.5,4.9,9.5.8,18.9,0,27.6-4.2,2.4-1.2,4.1-2.1,6.9-2.1s3.3.3,4.9,0c1.7-.3,2.6-.9,3.3-2.5,2.4-5.2,1.8-12.7,1.9-18.2.2-6.9.5-13.8.4-20.7-.3-22.9-2.5-45.8-2.1-68.8.2-10,.7-20.2,3.2-29.9.2-.9-1.2-1.3-1.5-.4h0Z"/>
      </g>
      <path class="cls-24" d="M1423.2,835c1.3,0,2.2,0,2,.5"/>
      <ellipse class="cls-6" cx="941.1" cy="506.2" rx="85.9" ry="102.4"/>
      <g>
        <path class="cls-21" d="M853.7,494.3c-3.5-9.8-2.1-20.9,1.8-30.5,3.9-9.7,10.2-18.1,16.9-26.1,7-8.4,14.5-16.5,23.7-22.3,5.4-3.4,11.3-6,17.4-7.7,9.6-2.6,19.2-4.1,29.1-3.8,10.1.4,20.9,2.7,30.3,6.6,9,3.8,16.7,9.9,24.1,16.3,6.7,5.8,13.2,12,17.7,19.7,8.7,14.6,16.2,31.4,15.8,48.4-6.1,0-19.2-1.3-24.5-4.2-13.1-7.3-23.8-18.1-34.3-28.8-7.2-7.3-7.4-8.1-14-16-1.9-2.2-8.3-11.8-9.2-14.6-1.9-5.4-4.5-10.5-6.5-15.8-1.5,7.3-4.9,13.6-7.7,20.5-6.2,15.6-19.4,28-33.3,37.4s-26.7,17-42.9,21.6c-2.1.6-3.9,1.5-4.5-.6"/>
        <path class="cls-11" d="M854.2,494.2c-4.8-14.8,0-29.8,8.2-42.4,7.3-11.3,16.7-22.5,27.2-31.1,22.9-18.7,58.2-21.2,84.8-9.2,12.1,5.5,23.1,15,32.1,24.7,9.6,10.3,16.6,24.4,20.7,37.8.9,2.8,1.6,5.7,2.1,8.6.2,1.4,2.4,10.5.5,11.7-1,.6-4.6-.2-5.7-.3-3.1-.3-6.1-.6-9.2-1.2-12.5-2.4-22.7-11.9-31.7-20.4-8.9-8.4-17.5-17.2-25.1-26.9-7.2-9.1-11.4-19.5-15.6-30.2-.2-.4-.8-.5-.9,0-2.2,9.7-6.7,20.3-11.8,28.8-5.2,8.6-12.3,16-20.1,22.3-7.8,6.3-16.4,11.8-25.2,16.8-4.5,2.5-9.1,4.8-13.8,6.8-2.1.9-15.1,7-16.6,4.1-.3-.5-1.1,0-.8.5.9,1.8,1.9,1.5,3.8,1.1,4.7-1,9.5-2.9,13.9-4.8,8.6-3.6,16.8-8.3,24.6-13.4,15.2-9.8,30-21.6,37.9-38.4,1.9-4,3.6-8.2,5.3-12.3.9-2.1,1.7-4.2,2.4-6.3,1.2-3.6.7-4.2,2.4-.1,2.8,6.7,5.2,13.1,9.2,19.2,8.3,12.8,19.3,23.8,30.4,34.2,7.1,6.6,15.3,14.4,24.4,18.1,7,2.9,15.5,3.3,23,3.5.2,0,.4-.2.4-.4.1-18.4-7.9-38-18.7-52.8-5.3-7.2-12.1-13.3-19-19-6.7-5.5-13.8-10.5-21.9-13.7-18-7.1-37.6-7.5-56.2-2.7-19.1,5-32.7,17.7-44.8,32.6-12.5,15.4-23.7,34.7-17.1,55.1.2.6,1.1.3.9-.2h0Z"/>
      </g>
      <g>
        <ellipse class="cls-1" cx="981.6" cy="513.1" rx="7" ry="10.1"/>
        <ellipse class="cls-1" cx="900.5" cy="513.1" rx="7" ry="10.1"/>
      </g>
      <g>
        <circle class="cls-19" cx="983.2" cy="557.8" r="22.7"/>
        <circle class="cls-19" cx="900.6" cy="557.8" r="22.7"/>
      </g>
      <g>
        <path class="cls-7" d="M887.4,483.9c9.4-4.5,20.1-3.7,28.9,2,.8.5,1.6-.8.8-1.3-9.2-6-20.5-6.7-30.4-2-.9.4-.1,1.7.8,1.3h0Z"/>
        <path class="cls-7" d="M966.3,487c10.2-4.8,21.8-4.9,32.1-.3.9.4,1.7-.9.8-1.3-10.9-4.8-22.8-4.7-33.6.3-.9.4-.1,1.7.8,1.3h0Z"/>
      </g>
      <path class="cls-7" d="M937.6,514.9c-.5,4.4-.8,8.8-.8,13.2,0,2.7-1,8,.2,10.4,1.6,3.2,6.9,0,9.4-.7.9-.3.5-1.7-.4-1.5-1.1.3-6.1,2.5-7.1,2-1.4-.8-.7-6.2-.7-7.3,0-5.4.2-10.7.8-16.1.1-1-1.4-.9-1.5,0h0Z"/>
      <path class="cls-7" d="M857,493c-2.1-35,17.3-69.2,51.2-81.2,15.8-5.6,33.7-7.5,50.2-4.4,17.6,3.3,32.3,13.1,43.7,26.7,13.3,15.9,25.1,37.5,23.9,58.9-.3,4.9,7.3,4.8,7.6,0,1.2-20.7-9-41.6-21.1-57.9-11.6-15.5-26.5-28.1-45.4-33.4-35.1-9.8-76.6,1.5-99.2,30.5-13.6,17.3-19.6,39-18.3,60.8.3,4.8,7.8,4.9,7.6,0h0Z"/>
      <path class="cls-7" d="M850,490.8c-16.2,5-26.9,23.7-26.9,39.8,0,10.3,4.4,17.7,12.4,23.9,7.7,6,17.5,8.3,26.4,3.2,2.6-1.5,4.7-5.5,3.5-8.5-3.5-8.8-3.5-17.8-3.5-27.1s0-9.7-.5-14.6c-.4-3.7-.6-8.1-2.5-11.3-2.3-4-6.9-5.5-11.1-3.6-4.4,2.1-6.3,6.8-7.9,11.2-3.1,8.8-4.8,20.3-3.1,29.5,1.5,8.3,15.7,6.5,14.8-2-.6-5.5-2.7-9.3-7.2-12.4-4.4-3-9.5.3-11.1,4.5-3.4,9,2.8,24.6,14.3,20.8,3.2-1.1,5.5-3.8,5.6-7.3v-1.6c-4.9.7-9.9,1.3-14.8,2,.4,2.6.8,5.1,1.1,7.7,1.1,7.6,12.9,6.8,14.6,0l.3-1.4c2.3-9.4-12.3-13.5-14.6-4l-.3,1.4h14.6c-.4-2.6-.8-5.1-1.1-7.7-1.3-8.6-14.7-6.2-14.8,2v1.6c1.8-2.4,3.7-4.9,5.5-7.3-.5.2-1.1.4-1.6.5,1.9.2,3.9.5,5.8.8-1-.8-.2-2.7,0-3.5-3.7,1.5-7.4,3-11.1,4.5l-.2-.6,14.8-2c-.8-4.1.4-9.2,1.1-13.3.4-2.2.8-4.4,1.5-6.6.3-1,.6-1.9,1-2.9,1.3-2.1.9-2.1-1.4,0-1.9-.2-3.9-.5-5.8-.8-1.2-.6-2-1.6-2.3-2.9.2,1.1.5,2.2.7,3.3.3,2.1.5,4.3.6,6.5.2,4.6.1,9.2.2,13.7,0,9.1.6,18.3,4.1,26.8,1.2-2.8,2.3-5.7,3.5-8.5-4.4,2.5-9.1-1.5-12.2-4.4-4.2-4.1-4.4-9-3.5-14.7,1.2-7.4,7.8-17.8,15.5-20.2,9.2-2.9,5.3-17.5-4-14.6h0Z"/>
      <path class="cls-7" d="M1030.6,507.1c8.4,2.6,13.7,13.7,14.1,21.8.2,5.6-.7,8.6-4.9,12.4-2.9,2.6-7.2,5.7-11.1,3.4.9,3.4,1.8,6.9,2.7,10.3,4.2-9.4,6.5-19.2,6.6-29.5,0-3.9-.2-7.8-.4-11.7-.1-2.6-.9-8.9-.2-10.4-1.5,1.2-3,2.3-4.5,3.5l1.1-.2c-1.9-.2-3.9-.5-5.8-.8-1.1-1.4-1.1-1.2,0,.6.4.9.7,1.9,1,2.9.7,2.1,1.1,4.3,1.5,6.6.7,4.1,1.8,9.2,1.1,13.3,4.9.7,9.9,1.3,14.8,2l-.2.6-11.1-4.5c.3.8,1.1,2.7,0,3.5,1.9-.2,3.9-.5,5.8-.8-.5-.2-1.1-.4-1.6-.5,1.8,2.4,3.7,4.9,5.6,7.3v-1.6c-.2-8.1-13.6-10.7-14.9-2l-1.1,7.7h14.6l-.3-1.4c-2.3-9.4-16.9-5.4-14.6,4l.3,1.4c1.7,6.8,13.5,7.6,14.6,0,.4-2.6.8-5.1,1.1-7.7-4.9-.7-9.9-1.3-14.8-2v1.6c0,3.5,2.4,6.2,5.6,7.3,11.5,3.8,17.7-11.8,14.3-20.8-1.6-4.2-6.7-7.5-11.1-4.5-4.6,3.1-6.7,6.9-7.2,12.4-.9,8.4,13.3,10.4,14.8,2,1.7-9.1,0-20.7-3.1-29.5-1.6-4.5-3.6-9.4-8.3-11.3-5.1-2-10.5,1.2-11.8,6.3-1.8,6.8-.4,14.8-.2,21.7.3,9.3-.6,18.3-4.4,26.9-1.7,3.7-1.1,8.1,2.7,10.3,16.4,9.4,37.2-6.7,38.7-23.8,1.4-16.7-8.3-36.2-25.1-41.4-9.3-2.9-13.3,11.7-4,14.6h0Z"/>
      <path class="cls-20" d="M763,296l68.4,90.2-217.1-89.7h-183.8c-50.3,0-91-32-91-71.5v-32.8c0-39.5,40.7-71.5,91-71.5h322.3c50.2,0,91,32,91,71.5v32.8c0,36.8-35.3,67.1-80.8,71.1h0Z"/>
      <g>
        <rect class="cls-20" x="1346.6" y="510.1" width="164.4" height="233.7" rx="17.1" ry="17.1" transform="translate(346.1 1750.4) rotate(-69.8)"/>
        <polygon class="cls-20" points="1203.6 542.9 1312.6 611.2 1331.8 562.4 1203.6 542.9"/>
      </g>
      <polygon class="cls-4" points="1448 853.4 1421.9 880.5 1409.4 845.3 1434.1 819.9 1448 853.4"/>
      <polygon class="cls-4" points="1584.9 522.7 1573.2 545.9 1560.5 528.4 1571.7 506.5 1584.9 522.7"/>
      <polygon class="cls-4" points="934.6 158.8 915.8 191.1 897.2 157.9 915.6 133 934.6 158.8"/>
      <polygon class="cls-4" points="215.2 324.5 214.6 358.7 188.4 341.8 191.7 313.5 215.2 324.5"/>
      <polygon class="cls-4" points="1038 266.5 1035.4 292 1015.8 279.3 1018.4 255.4 1038 266.5"/>
      <polygon class="cls-4" points="386.9 966.3 363.7 1001.5 344.1 967.5 366.1 934.3 386.9 966.3"/>
      <polygon class="cls-4" points="1602.2 730.3 1592.3 760.5 1567.5 736 1577.1 707.6 1602.2 730.3"/>
      <polygon class="cls-4" points="666.1 473.8 693.3 499.3 702.6 467.5 676.7 443.6 666.1 473.8"/>
      <path class="cls-12" d="M260.7,470.1c-13.9-44.1-11.2-96.1,18.1-131.9,29.3-35.8,88.8-47.1,123-15.9,20.6,18.7,29.1,48.4,50.8,65.8,37.2,30,99.9,14.3,131.8,49.9,16.6,18.6,19.2,45.8,16.3,70.6-2.8,24.7-10.1,49.1-9.9,73.9.2,27.9,9.7,54.9,11.3,82.8,2.6,46.2-18.7,93.6-56.2,120.8-37.5,27.2-90.2,32.5-131.6,11.6-27.2-13.8-50.2-38-80.5-42.1-52.2-7-92.2,48.4-144,58.7-32.4,6.4-68-7.3-87.6-33.9-9.7-13.1-15.6-28.7-19.6-44.6-14.4-56.4-3.9-122.1,38.6-161.9,23-21.6,52.9-33.9,79.8-50.4,26.9-16.5,52.5-40.2,57.3-71.4"/>
      <g>
        <g>
          <path class="cls-9" d="M140.7,862.8c30.4-5.5,60.7-11,91.1-16.4l-20-112.5c-30.6,5.4-61.1,10.9-91.7,16.5l20.5,112.4Z"/>
          <polygon class="cls-10" points="197.4 790.4 199.4 801.6 216.4 798.6 214.4 787.4 197.4 790.4"/>
          <polygon class="cls-10" points="167 795.9 169 807.1 186 804.1 184 792.8 167 795.9"/>
          <polygon class="cls-10" points="136.7 801.4 138.7 812.6 155.7 809.5 153.6 798.3 136.7 801.4"/>
        </g>
        <g>
          <path class="cls-9" d="M231.8,846.4c30.4-5.4,60.8-10.7,91.2-15.9l-19.4-112.6c-30.6,5.3-61.2,10.6-91.8,16.1l20,112.5h0Z"/>
          <polygon class="cls-10" points="288.9 774.3 290.9 785.5 307.8 782.6 305.9 771.3 288.9 774.3"/>
          <polygon class="cls-10" points="258.4 779.6 260.4 790.9 277.4 787.9 275.4 776.6 258.4 779.6"/>
          <polygon class="cls-10" points="228.1 785 230.1 796.2 247.1 793.2 245.1 782 228.1 785"/>
        </g>
        <g>
          <path class="cls-9" d="M323.1,830.4c30.4-5.2,60.8-10.4,91.3-15.5l-18.8-112.7c-30.6,5.1-61.2,10.3-91.8,15.6l19.4,112.6Z"/>
          <polygon class="cls-10" points="380.5 758.6 382.4 769.9 399.4 767 397.5 755.8 380.5 758.6"/>
          <polygon class="cls-10" points="350 763.8 351.9 775 368.9 772.1 367 760.9 350 763.8"/>
          <polygon class="cls-10" points="319.6 769 321.5 780.2 338.5 777.3 336.6 766.1 319.6 769"/>
        </g>
        <g>
          <path class="cls-9" d="M414.3,814.9c30.4-5.1,60.9-10.1,91.4-15.1l-18.3-112.7c-30.7,5-61.3,10-91.9,15.1l18.8,112.7Z"/>
          <polygon class="cls-10" points="472.1 743.4 473.9 754.7 491 751.9 489.1 740.6 472.1 743.4"/>
          <polygon class="cls-10" points="441.6 748.4 443.5 759.7 460.5 756.9 458.6 745.6 441.6 748.4"/>
          <polygon class="cls-10" points="411.2 753.5 413.1 764.7 430.1 761.9 428.2 750.6 411.2 753.5"/>
        </g>
        <g>
          <path class="cls-9" d="M505.7,799.9c30.5-4.9,60.9-9.8,91.4-14.6l-17.7-112.8c-30.7,4.8-61.3,9.7-92,14.7l18.3,112.7Z"/>
          <polygon class="cls-10" points="563.8 728.6 565.6 739.9 582.6 737.2 580.8 725.9 563.8 728.6"/>
          <polygon class="cls-10" points="533.3 733.5 535.1 744.8 552.1 742 550.3 730.8 533.3 733.5"/>
          <polygon class="cls-10" points="502.8 738.4 504.7 749.7 521.7 746.9 519.9 735.6 502.8 738.4"/>
        </g>
      </g>
      <g>
        <g>
          <path class="cls-9" d="M92.4,509.9c30.4-5.5,60.7-11,91.1-16.4l-20-112.5c-30.6,5.4-61.1,10.9-91.7,16.5l20.5,112.4Z"/>
          <polygon class="cls-10" points="149.1 437.5 151.1 448.7 168 445.7 166 434.5 149.1 437.5"/>
          <polygon class="cls-10" points="118.6 443 120.7 454.2 137.6 451.1 135.6 439.9 118.6 443"/>
          <polygon class="cls-10" points="88.3 448.5 90.3 459.7 107.3 456.6 105.3 445.4 88.3 448.5"/>
        </g>
        <g>
          <path class="cls-9" d="M183.5,493.5c30.4-5.4,60.8-10.7,91.2-15.9l-19.4-112.5c-30.6,5.3-61.2,10.6-91.8,16l20,112.5h0Z"/>
          <polygon class="cls-10" points="240.5 421.4 242.5 432.6 259.5 429.7 257.5 418.4 240.5 421.4"/>
          <polygon class="cls-10" points="210.1 426.7 212.1 437.9 229 435 227.1 423.7 210.1 426.7"/>
          <polygon class="cls-10" points="179.7 432 181.7 443.3 198.7 440.3 196.7 429 179.7 432"/>
        </g>
        <g>
          <path class="cls-9" d="M274.7,477.5c30.4-5.2,60.8-10.4,91.3-15.5l-18.8-112.7c-30.6,5.1-61.2,10.3-91.8,15.6l19.4,112.6Z"/>
          <polygon class="cls-10" points="332.1 405.7 334 417 351 414.1 349.1 402.9 332.1 405.7"/>
          <polygon class="cls-10" points="301.6 410.9 303.5 422.1 320.5 419.2 318.6 408 301.6 410.9"/>
          <polygon class="cls-10" points="271.2 416.1 273.2 427.3 290.2 424.4 288.2 413.2 271.2 416.1"/>
        </g>
        <g>
          <path class="cls-9" d="M366,462c30.4-5.1,60.9-10.1,91.4-15.1l-18.3-112.7c-30.7,5-61.3,10-91.9,15.1l18.8,112.7Z"/>
          <polygon class="cls-10" points="423.7 390.5 425.6 401.8 442.6 399 440.8 387.7 423.7 390.5"/>
          <polygon class="cls-10" points="393.2 395.5 395.1 406.8 412.1 404 410.2 392.7 393.2 395.5"/>
          <polygon class="cls-10" points="362.8 400.5 364.7 411.8 381.7 409 379.8 397.7 362.8 400.5"/>
        </g>
        <g>
          <path class="cls-9" d="M457.3,447c30.5-4.9,60.9-9.8,91.4-14.6l-17.7-112.8c-30.7,4.8-61.3,9.7-92,14.7l18.3,112.7Z"/>
          <polygon class="cls-10" points="515.4 375.7 517.2 387 534.3 384.3 532.5 373 515.4 375.7"/>
          <polygon class="cls-10" points="484.9 380.6 486.7 391.9 503.7 389.2 501.9 377.9 484.9 380.6"/>
          <polygon class="cls-10" points="454.5 385.5 456.3 396.8 473.3 394 471.5 382.7 454.5 385.5"/>
        </g>
      </g>
      <g>
        <g>
          <path class="cls-9" d="M186.8,797.2c-4.9-29.4-9.7-58.8-14.4-88.2l-112.8,17.9c4.7,29.7,9.6,59.4,14.5,89.1l112.6-18.8h0Z"/>
          <polygon class="cls-10" points="115.7 741.6 127 739.8 124.3 723.3 113.1 725.1 115.7 741.6"/>
          <polygon class="cls-10" points="120.5 771.1 131.8 769.3 129.1 752.8 117.8 754.7 120.5 771.1"/>
          <polygon class="cls-10" points="125.4 800.5 136.6 798.7 133.9 782.2 122.6 784.1 125.4 800.5"/>
        </g>
        <g>
          <path class="cls-9" d="M172.4,709c-4.7-29.4-9.3-58.9-13.7-88.4l-112.9,17.1c4.5,29.8,9.1,59.5,13.9,89.2l112.8-17.9h0Z"/>
          <polygon class="cls-10" points="101.7 652.8 113 651.1 110.5 634.6 99.2 636.3 101.7 652.8"/>
          <polygon class="cls-10" points="106.3 682.4 117.6 680.6 115.1 664.1 103.8 665.9 106.3 682.4"/>
          <polygon class="cls-10" points="111 711.8 122.2 710 119.6 693.6 108.4 695.4 111 711.8"/>
        </g>
        <g>
          <path class="cls-9" d="M158.7,620.6c-4.5-29.5-8.8-59-13-88.5l-113.1,16.2c4.3,29.8,8.7,59.6,13.2,89.3l112.9-17.1h0Z"/>
          <polygon class="cls-10" points="88.5 563.9 99.8 562.3 97.4 545.8 86.1 547.4 88.5 563.9"/>
          <polygon class="cls-10" points="92.8 593.5 104.1 591.8 101.7 575.4 90.4 577 92.8 593.5"/>
          <polygon class="cls-10" points="97.2 623 108.5 621.3 106 604.8 94.7 606.5 97.2 623"/>
        </g>
        <g>
          <path class="cls-9" d="M145.6,532.1c-4.2-29.5-8.4-59-12.4-88.6l-113.2,15.4c4,29.8,8.2,59.6,12.5,89.4l113-16.2h0Z"/>
          <polygon class="cls-10" points="75.8 474.9 87.2 473.4 84.9 456.8 73.6 458.4 75.8 474.9"/>
          <polygon class="cls-10" points="80 504.5 91.3 503 89 486.5 77.7 488 80 504.5"/>
          <polygon class="cls-10" points="84.2 534.1 95.5 532.5 93.1 516 81.8 517.6 84.2 534.1"/>
        </g>
      </g>
      <g>
        <g>
          <path class="cls-9" d="M647.4,720.5c-6.4-38.9-12.9-77.7-19.5-116.6l-112.6,19.1c6.6,38.7,13,77.3,19.4,116.1l112.7-18.6h0Z"/>
          <polygon class="cls-10" points="572.7 644.4 584 642.5 580.3 620.9 569.1 622.8 572.7 644.4"/>
          <polygon class="cls-10" points="579.2 683.1 590.5 681.2 586.8 659.6 575.6 661.5 579.2 683.1"/>
          <polygon class="cls-10" points="585.6 721.7 596.9 719.8 593.3 698.2 582 700.1 585.6 721.7"/>
        </g>
        <g>
          <path class="cls-9" d="M627.9,604c-6.6-38.8-13.3-77.7-20.1-116.5l-112.5,19.7c6.8,38.6,13.4,77.3,20,115.9l112.6-19.1h0Z"/>
          <polygon class="cls-10" points="552.8 528.2 564.1 526.2 560.3 504.6 549.1 506.6 552.8 528.2"/>
          <polygon class="cls-10" points="559.5 566.8 570.8 564.9 567 543.3 555.8 545.3 559.5 566.8"/>
          <polygon class="cls-10" points="566.1 605.4 577.4 603.5 573.7 581.9 562.4 583.8 566.1 605.4"/>
        </g>
        <g>
          <path class="cls-9" d="M607.8,487.5c-6.8-38.8-13.7-77.6-20.7-116.4l-112.4,20.2c6.9,38.6,13.8,77.2,20.5,115.8l112.5-19.7h0Z"/>
          <polygon class="cls-10" points="532.4 412 543.6 410 539.8 388.5 528.5 390.5 532.4 412"/>
          <polygon class="cls-10" points="539.3 450.7 550.5 448.7 546.7 427.1 535.4 429.1 539.3 450.7"/>
          <polygon class="cls-10" points="546 489.2 557.3 487.3 553.5 465.7 542.3 467.7 546 489.2"/>
        </g>
      </g>
      <g>
        <path class="cls-12" d="M1194.7,220.4c67.2-26.1,45.6-19.5,91.8-62,9.1-8.3,43.2-62.4,50.6-72.2,7.6-10.2,3.5-9.5,15-15,23-10.8,48.8-21.9,73.2-14.4,29.3,9,44.6,41,69.4,59.1,14.5,10.6,32.5,16.3,50.4,15.9,14.3-.3,29.1-4.1,42.6.7,23.1,8.2,30.5,40.8,17.5,61.5-4.5,7.1-10.7,13-15.1,20.2-12.3,20.2-7.8,46.9,4.1,67.3,6.8,11.7,15.8,22.1,21.8,34.2,11.7,23.8,10.3,53.5-3.5,76.2-13.9,22.6-39.8,37.3-66.3,37.6-40.7.5-92.1-12-120-41.6-18.2-19.3-45.1-30.4-71.4-34-16.1-2.2-46.9.5-62,6.7-45.7,18.8-60.9,43.4-110.2,38.9-10.2-.9-24.8-17.9-32.5-24.6-6.2-5.4-8.5-17.1-11.6-24.6-9.9-23.7-1-50.7,6.1-75.3s30.5-48.4,55-56.3"/>
        <path class="cls-12" d="M1198.8,235c17.6-6.8,36.7-12.8,52.7-23,10.8-6.9,19.1-16.6,28-25.7,6.4-6.5,13.8-12.4,19.8-19.3,5.5-6.2,10.2-13.1,14.9-19.9,10.6-15.2,20.6-30.8,31-46.1,1.5-2.2,3-4.5,4.6-6.7,1.2-1.7,2.5-3.4,3.6-5.2.4-.7,2.6-3.4,2.5-4.1,0,.7-2.8,3.1-.9,1.3-3.6,3.2-1.5,1.2-.2.5,2.6-1.5,5.5-2.8,8.2-4,7-3.2,12.5-5.7,19.8-8.2,3.4-1.2,6.8-2.2,10.3-3.1,1.7-.4,3.4-.8,5.2-1.1.9-.2,1.7-.3,2.6-.5,2.8-.4-1.6.1,1.2-.1,7.9-.7,13-.4,19.9,1.8.6.2,3.9,1.4,2.7.9s1.9,1,2.5,1.2c2.6,1.3,5.1,2.9,7.5,4.6.7.5,3.2,2.5,1.3.9,1.1.9,2.1,1.7,3.2,2.6,2.4,2.1,4.8,4.4,7.1,6.7,8.5,8.6,16.1,18,24.6,26.5,10.5,10.5,22.2,18.9,35.9,24.5,14.1,5.8,29.5,8.1,44.7,7,7.8-.6,15.5-1.7,23.3-1.4,2.8.1,4.5.3,8.1,1.5.7.2,1.3.5,2,.7-.4-.2-2-1.2-.9-.3.9.8,2.5,1.6,3.6,2.1-2.1-1.1-.5-.5.6.6,1,.9,1.8,2.1,2.8,3,1.2,1.1-.4-.5-.5-.8.3.5.7,1,1,1.5.7,1.2,1.5,2.3,2.1,3.6.6,1.2,1.2,3.2.4.8.3,1.2.8,2.3,1.2,3.4s.6,2.3.9,3.5c.1.6.2,1.2.3,1.8.6,2-.2-3.5,0,.2.1,2.5,0,4.9,0,7.4,0,3,.5-2,0,.9-.3,1.4-.6,2.8-1,4.2-.3,1.2-.8,2.3-1.2,3.5-.4,1.6.2-.6.3-.8-.3.5-.5,1.1-.8,1.6-1.4,2.5-3.8,6-4.6,7-4.7,6-10,11.7-13.5,18.5-3.9,7.5-6.1,15.3-7.2,23.7-1.8,14.1.7,28.8,6.1,41.9,5.9,14.4,15.2,26.2,23.4,39.3,1.9,3,3.7,6,5.2,9.2,1.4,3,1.8,4,3.1,8.2.9,3,1.6,6.2,2.2,9.3.5,2.6,0-.4.3,2.3.1,1.8.3,3.7.3,5.6.2,7.8-.1,10.7-2,18-.8,3.1-1.8,6.1-2.9,9.1-.6,1.6-.2.4,0,0-.3.7-.7,1.4-1,2.2-.8,1.7-1.7,3.3-2.6,4.9s-1.9,3-2.9,4.5c-.4.6-.9,1.2-1.3,1.8.2-.3,1.2-1.4,0,0-2,2.5-4.2,4.9-6.6,7.2-1.1,1-2.2,2-3.3,3-.5.4-3.3,2.6-1.6,1.4-2.8,2.1-5.8,4-8.8,5.7-1.3.7-2.6,1.4-4,2.1-.6.3-3.9,1.7-1.9.9-3,1.2-6.1,2.2-9.2,3-1.4.4-2.9.7-4.4,1-.7.2-1.5.3-2.2.4,0,0-2.5.4-.9.2s-.9,0-1,0c-1,0-2,.2-3,.2-1.7,0-3.4,0-5.1.1-5.9,0-11.9-.3-17.8-.8-1.5-.1-2.9-.3-4.4-.4-.7,0-1.5-.2-2.2-.2-.4,0-3.4-.4-1.7-.2,1.6.2-.8-.1-.9-.1-.7-.1-1.5-.2-2.2-.3-1.7-.3-3.5-.6-5.2-.9-12.7-2.3-25.1-5.8-37-10.6-1.6-.6-.1,0,.2,0-.7-.3-1.4-.6-2-.9-1.3-.6-2.7-1.2-4-1.9-3.1-1.5-6.1-3.1-9.1-4.8-2.5-1.4-4.9-3-7.3-4.6-1.2-.8-2.3-1.6-3.5-2.5-1.4-1,0,0,.2.2-.7-.6-1.5-1.2-2.2-1.8-4.9-4.1-9-8.9-13.8-13.1-5.5-4.9-11.6-9.4-17.9-13.3-12.3-7.5-26.2-13-40.3-16.4-24.7-6-51.6-5.1-76.1,1.4-24.1,6.4-44.6,22-66.6,32.9-1.1.6-2.3,1.1-3.4,1.6-.5.2-3.8,1.7-2.2,1,1.5-.6-1.8.7-2.3.9-1.6.6-3.2,1.1-4.8,1.6-2.5.8-5.1,1.4-7.6,2-1.3.3-2.7.5-4,.8-1.8.3.3,0,.6,0-.9.1-1.9.2-2.9.3-3,.3-6.1.4-9.1.4-1.9,0-3.8,0-5.7-.1-1,0-6-.7-2.9,0-1-.2-1.9-.5-2.9-.8,2.5.8,1,.3-.4-.5-1.1-.6-2.1-1.4-3.1-2.1-.2-.1-1.8-1.4-.6-.4s-.9-.8-1.1-1c-4.4-3.8-8.5-7.9-12.6-11.9-1.5-1.5-3.1-2.9-4.7-4.4-.5-.4-.9-.9-1.3-1.4.2.3,1.2,1.8.5.4-.3-.7-2.3-4.3-1.3-2.1-2.5-5.7-4.4-11.9-6.5-17.7-2.6-7.5-2.9-11.7-2.6-19.6,0-1.7.2-3.5.4-5.2.2-2.2,0-.8.4-3,.6-3.8,1.4-7.6,2.3-11.3,1.8-7.5,4-15,6.2-22.4.4-1.5.9-3.1,1.4-4.6.2-.7,1.3-3.8,1-3s1.1-2.3,1.4-3c.8-1.6,1.6-3.2,2.5-4.7,3.7-6.4,5.8-9,10.9-14.4,4.6-4.8,8.3-7.9,12.6-10.8,2.8-1.8,5.6-3.5,8.6-5,.7-.3,1.4-.7,2-1,0,0,2.3-1,.9-.4-.7.3,3-1.1,3.7-1.3,7.7-2.6,12.8-10.4,10.6-18.6-2.1-7.5-10.8-13.2-18.6-10.5-29.1,9.8-53.2,33.3-63.9,62-5.6,14.8-9.5,31-11.6,46.7-1.1,8.3-1.4,16.4-.3,24.7,1,7.8,3.5,14.5,6,21.9,2.3,6.7,4.4,14,8.4,19.9,3.5,5.2,8.2,9.1,12.7,13.4,8.7,8.5,18.9,19.2,31.3,21.4,27.5,5,54.5-4,78.2-17.3,11.5-6.5,22.7-13.2,34.7-18.8,5.2-2.4,8.7-3.9,14.6-5.4,2.8-.7,5.6-1.3,8.4-1.8,1.6-.3,3.2-.5,4.9-.8.1,0,2.5-.3.8-.1s1.3-.1,1.6-.2c6.4-.7,12.8-1.1,19.2-1.2,2.8,0,5.5,0,8.3.2,1.2,0,2.3.2,3.4.3,3.3.3-1.4-.3,1.8.2,7.2,1.2,14.2,2.8,21.2,5.1,7.6,2.5,11.1,3.9,18,7.7,3.1,1.7,6.1,3.5,9,5.4,3.6,2.4,4.3,3,7.1,5.4,4.8,4.2,9,9.1,13.8,13.2,10.6,9,22.4,16.2,35.2,21.6,26,11.1,54.1,16.8,82.4,17.3,29.1.5,58.3-11.1,76.9-34,19.9-24.5,26.9-58.2,17.2-88.5-5-15.5-14.4-28-23.2-41.4-2-3.1-4-6.2-5.8-9.5-2.1-3.8-2.6-5-3.7-8-1.2-3.3-2.2-6.6-2.9-10-.3-1.5-.7-3.1-.9-4.7-.4-2.6.2,1.9,0-.7,0-1-.2-2.1-.2-3.1-.2-3.3-.1-6.8.3-10.1-.3,2.3.4-1.4.5-2,.5-2,1.1-4,1.8-5.9-.7,1.9.7-1.5,1-2,.7-1.4,1.6-2.8,2.4-4.1.6-.9,1.3-1.8,1.9-2.8-.2.3-.8,1.1.2-.3,1.2-1.5,2.5-3,3.7-4.6,9.6-11.9,16-24.1,16.7-39.7.6-12.3-2.8-25.6-9.8-35.8-9.2-13.4-22.6-20.4-38.6-22-8.1-.8-16.1.2-24.1.9-3.6.3-7.1.5-10.7.5s-3.9,0-5.9-.2c-.8,0-1.7-.1-2.5-.2,1.6.2-.5,0-1-.1-3.6-.6-7.2-1.4-10.6-2.5-3.8-1.2-6.4-2.2-8.9-3.4-3.3-1.6-6.4-3.4-9.5-5.4-1.3-.9-2.6-1.8-3.9-2.8,2.1,1.6-1.8-1.5-2.4-2.1-19.3-16.8-33.2-40.2-56.4-52.3-32.1-16.7-65.9-4.5-96.3,9.7-4.7,2.2-9.7,4.5-13.3,8.4-3.3,3.6-5.5,8.2-8.3,12.2-4,5.5-7.8,11.3-11.6,17-10.8,16.2-21.5,32.6-33,48.3-1.6,2.1,2-2.5.5-.6-.4.5-.9,1.1-1.3,1.6-.8,1-1.7,2-2.6,2.9-3.9,4-8.2,7.6-12.2,11.5-5.8,5.7-11.5,11.7-17.2,17.5-1.9,1.9-3.7,3.8-5.7,5.6-.9.8-1.8,1.6-2.8,2.4-2.2,1.9,1.9-1.3,1.1-.8-.6.3-1.1.8-1.6,1.2-5.4,3.8-11.4,6.6-17.4,9.2-.9.4-1.8.8-2.7,1.2-2.6,1.1,2.4-1-.4.2-2.5,1-4.9,2-7.4,3-6.5,2.6-13,5.1-19.5,7.7-7.6,3-12.9,10.2-10.6,18.6,2,7.3,10.9,13.5,18.6,10.5h0Z"/>
      </g>
      <g>
        <g>
          <g>
            <path class="cls-9" d="M1139.6,444.6c37.9,4.2,75.8,8.4,113.7,12.8l13.2-113.5c-38.1-4.4-76.2-8.7-114.4-12.9l-12.5,113.5Z"/>
            <polygon class="cls-10" points="1230.7 393.3 1229.4 404.7 1250.6 407.1 1251.9 395.8 1230.7 393.3"/>
            <polygon class="cls-10" points="1192.7 389 1191.5 400.4 1212.6 402.8 1213.9 391.4 1192.7 389"/>
            <polygon class="cls-10" points="1154.9 384.8 1153.6 396.2 1174.8 398.5 1176.1 387.1 1154.9 384.8"/>
          </g>
          <g>
            <path class="cls-9" d="M1253.3,457.5c37.9,4.4,75.8,8.9,113.6,13.5l13.9-113.4c-38.1-4.7-76.2-9.2-114.3-13.6l-13.2,113.4h0Z"/>
            <polygon class="cls-10" points="1344.7 406.7 1343.4 418.1 1364.5 420.6 1365.9 409.3 1344.7 406.7"/>
            <polygon class="cls-10" points="1306.8 402.2 1305.4 413.5 1326.6 416.1 1327.9 404.7 1306.8 402.2"/>
            <polygon class="cls-10" points="1268.9 397.7 1267.6 409.1 1288.8 411.6 1290.1 400.2 1268.9 397.7"/>
          </g>
          <g>
            <path class="cls-9" d="M1366.9,471c37.9,4.6,75.7,9.4,113.5,14.2l14.6-113.3c-38.1-4.9-76.1-9.7-114.2-14.3l-13.9,113.4h0Z"/>
            <polygon class="cls-10" points="1458.6 420.8 1457.2 432.2 1478.3 434.9 1479.8 423.5 1458.6 420.8"/>
            <polygon class="cls-10" points="1420.7 416.1 1419.3 427.4 1440.4 430 1441.9 418.7 1420.7 416.1"/>
            <polygon class="cls-10" points="1382.9 411.4 1381.5 422.7 1402.7 425.3 1404.1 414 1382.9 411.4"/>
          </g>
          <g>
            <path class="cls-9" d="M1480.4,485.3c37.8,4.9,75.6,9.8,113.4,14.9l15.2-113.2c-38-5.1-76.1-10.1-114.1-15l-14.6,113.3Z"/>
            <polygon class="cls-10" points="1572.5 435.6 1571 447 1592.1 449.8 1593.6 438.5 1572.5 435.6"/>
            <polygon class="cls-10" points="1534.6 430.6 1533.1 442 1554.2 444.7 1555.7 433.4 1534.6 430.6"/>
            <polygon class="cls-10" points="1496.8 425.7 1495.4 437 1516.5 439.8 1518 428.5 1496.8 425.7"/>
          </g>
        </g>
        <g>
          <g>
            <path class="cls-9" d="M1192.1,100.6c37.9,4.2,75.8,8.5,113.7,12.8L1319,0c-38.1-4.4-76.2-8.7-114.4-12.9l-12.5,113.5h0Z"/>
            <polygon class="cls-10" points="1283.3 49.3 1282 60.7 1303.1 63.1 1304.4 51.8 1283.3 49.3"/>
            <polygon class="cls-10" points="1245.3 45 1244 56.4 1265.2 58.8 1266.5 47.4 1245.3 45"/>
            <polygon class="cls-10" points="1207.4 40.8 1206.2 52.1 1227.3 54.5 1228.6 43.1 1207.4 40.8"/>
          </g>
          <g>
            <path class="cls-9" d="M1305.8,113.5c37.9,4.4,75.8,8.9,113.6,13.5l13.9-113.4c-38.1-4.7-76.2-9.2-114.3-13.6l-13.2,113.5h0Z"/>
            <polygon class="cls-10" points="1397.3 62.7 1395.9 74.1 1417 76.6 1418.4 65.3 1397.3 62.7"/>
            <polygon class="cls-10" points="1359.3 58.2 1358 69.5 1379.1 72 1380.5 60.7 1359.3 58.2"/>
            <polygon class="cls-10" points="1321.5 53.7 1320.2 65.1 1341.3 67.5 1342.7 56.2 1321.5 53.7"/>
          </g>
          <g>
            <path class="cls-9" d="M1419.4,127c37.9,4.6,75.7,9.4,113.5,14.2l14.6-113.3c-38.1-4.9-76.1-9.7-114.2-14.3l-13.9,113.4h0Z"/>
            <polygon class="cls-10" points="1511.2 76.8 1509.7 88.2 1530.9 90.9 1532.3 79.5 1511.2 76.8"/>
            <polygon class="cls-10" points="1473.3 72.1 1471.9 83.4 1493 86 1494.4 74.7 1473.3 72.1"/>
            <polygon class="cls-10" points="1435.5 67.4 1434.1 78.7 1455.2 81.3 1456.6 70 1435.5 67.4"/>
          </g>
          <g>
            <path class="cls-9" d="M1532.9,141.2c37.8,4.9,75.6,9.8,113.4,14.9l15.2-113.2c-38-5.1-76.1-10.1-114.1-15l-14.6,113.3h0Z"/>
            <polygon class="cls-10" points="1625 91.6 1623.5 103 1644.6 105.8 1646.1 94.5 1625 91.6"/>
            <polygon class="cls-10" points="1587.1 86.6 1585.6 98 1606.8 100.7 1608.3 89.4 1587.1 86.6"/>
            <polygon class="cls-10" points="1549.4 81.7 1547.9 93 1569 95.8 1570.5 84.5 1549.4 81.7"/>
          </g>
        </g>
        <g>
          <g>
            <path class="cls-9" d="M1202.5,394.8c4.7-38.5,9.6-77,14.8-115.5l-113.2-15.1c-5.2,38.9-10.1,77.8-14.9,116.7l113.4,13.9h0Z"/>
            <polygon class="cls-10" points="1152.7 301.4 1164 302.8 1166.8 281.3 1155.5 279.8 1152.7 301.4"/>
            <polygon class="cls-10" points="1147.7 340 1159 341.5 1161.8 319.9 1150.5 318.5 1147.7 340"/>
            <polygon class="cls-10" points="1142.9 378.6 1154.2 380 1156.9 358.4 1145.6 357 1142.9 378.6"/>
          </g>
          <g>
            <path class="cls-9" d="M1217.3,279.3c5.1-38.5,10.4-76.9,15.9-115.4l-113.1-16.2c-5.6,38.8-10.9,77.7-16.1,116.5l113.2,15.1h0Z"/>
            <polygon class="cls-10" points="1168.4 185.3 1179.7 186.9 1182.8 165.4 1171.4 163.8 1168.4 185.3"/>
            <polygon class="cls-10" points="1163 223.9 1174.3 225.5 1177.3 204 1166 202.4 1163 223.9"/>
            <polygon class="cls-10" points="1157.8 262.4 1169.1 264 1172 242.4 1160.7 240.9 1157.8 262.4"/>
          </g>
          <g>
            <path class="cls-9" d="M1233.2,163.9c5.5-38.4,11.2-76.8,17.1-115.2l-112.9-17.4c-5.9,38.8-11.7,77.5-17.3,116.3l113.1,16.2h0Z"/>
            <polygon class="cls-10" points="1185.3 69.5 1196.6 71.2 1199.9 49.7 1188.6 48 1185.3 69.5"/>
            <polygon class="cls-10" points="1179.5 108 1190.8 109.7 1194 88.2 1182.7 86.5 1179.5 108"/>
            <polygon class="cls-10" points="1173.9 146.5 1185.2 148.1 1188.4 126.6 1177.1 125 1173.9 146.5"/>
          </g>
        </g>
        <g>
          <g>
            <path class="cls-9" d="M1660.5,452.4c4.8-38.2,9.4-76.4,14-114.6l-113.4-13.6c-4.6,38-9.2,76.1-13.9,114.1l113.3,14.1Z"/>
            <polygon class="cls-10" points="1610.2 360.1 1621.6 361.5 1624.1 340.3 1612.8 338.9 1610.2 360.1"/>
            <polygon class="cls-10" points="1605.6 398.2 1616.9 399.6 1619.5 378.4 1608.2 377 1605.6 398.2"/>
            <polygon class="cls-10" points="1600.9 436.1 1612.2 437.5 1614.9 416.3 1603.5 414.9 1600.9 436.1"/>
          </g>
          <g>
            <path class="cls-9" d="M1674.5,337.7c4.6-38.2,9.1-76.5,13.5-114.7l-113.5-13c-4.4,38.1-8.8,76.1-13.4,114.2l113.4,13.6h0Z"/>
            <polygon class="cls-10" points="1623.8 245.7 1635.1 247 1637.6 225.8 1626.3 224.5 1623.8 245.7"/>
            <polygon class="cls-10" points="1619.3 283.8 1630.7 285.2 1633.2 263.9 1621.8 262.6 1619.3 283.8"/>
            <polygon class="cls-10" points="1614.8 321.8 1626.2 323.1 1628.7 301.9 1617.4 300.5 1614.8 321.8"/>
          </g>
          <g>
            <path class="cls-9" d="M1688,223c4.4-38.2,8.7-76.5,12.9-114.8l-113.5-12.5c-4.2,38.1-8.4,76.2-12.8,114.2l113.5,13h0Z"/>
            <polygon class="cls-10" points="1636.8 131.3 1648.1 132.5 1650.5 111.3 1639.1 110 1636.8 131.3"/>
            <polygon class="cls-10" points="1632.5 169.4 1643.9 170.7 1646.3 149.4 1634.9 148.1 1632.5 169.4"/>
            <polygon class="cls-10" points="1628.2 207.4 1639.6 208.7 1642 187.4 1630.6 186.1 1628.2 207.4"/>
          </g>
        </g>
      </g>
      <g class="cls-14">
        <text class="cls-16" transform="translate(471.2 253.4)"><tspan x="0" y="0">B</tspan></text>
        <text class="cls-15" transform="translate(556.4 253.4)"><tspan x="0" y="0">B</tspan></text>
        <text class="cls-17" transform="translate(635.9 253.4)"><tspan x="0" y="0">T</tspan></text>
      </g>
      <polyline class="cls-8" points="1392.4 616.5 1406.8 647.6 1495.8 606.4"/>
      <g class="cls-14">
        <text class="cls-18" transform="translate(256.5 669.1) rotate(-9) scale(1.1 1)"><tspan x="0" y="0">!?</tspan></text>
      </g>
      <path class="cls-24" d="M1312.6,947.3c-1.7,9.4-8.3,20.6-16.4,25.7-8.9,5.6-23.2,9.6-31.1,8-49.7-10.4-108-74.6-164.7-66.5-1.1-24,28.3-51.3,32.5-66.8,54.3,26.7,115.8,36.8,172.1,35.4,2.2,4.8,3.1,10,4.8,15,5.2,16,5.8,32.9,2.8,49.2h0Z"/>
      <path class="cls-24" d="M1305.1,883.1c-56.3,1.4-117.8-8.8-172.1-35.4-4.2,15.5-3.5,40.8-2.5,64.8-.9-.2-1.8-.5-2.8-.7-5.9-1.4-12-2.6-17.9-1.4-12.7,2.6-20.9,14.8-26.1,26.7-5.2,11.8-9.2,24.9-18.9,33.5-11.4,10.1-28.1,11.5-43.2,9.7-15.1-1.8-30-6.2-45.2-5.8-4.8,0-9.8.7-14-1.3-4.2-1.9-7-5.9-9.5-9.8-16.2-26.1-23.8-56.7-26.5-87.3-2.7-30.6-.5-61.3,1.6-91.9,2.1-29.4,4.2-59.1,13-87.2,4.8-15.2,11.6-29.9,14.8-45.6,2.9-14.4,3.4-30.8,14.2-40.8h8.6c-4.1,9.2.5,20.3,8.1,26.7,7.6,6.4,17.5,9.2,27.1,11.7,45.7,11.9,98.2,17.8,139.2,41.2,61,34.8,97.2,99.3,133.6,159.3,6.6,10.9,13.2,22,18.4,33.7h0Z"/>
      <g>
        <path class="cls-22" d="M586.5,887.2c50.8-135.4,177.5-240.4,322.7-251.1l3.4-11.5c18.5.1,38.5.8,57,.9,3.8,0,12.5-.3,12.5-.3,0,0,2.8,7.5,4.2,9.6.8,1.2,1.1,1,2.6,1.1,126.3,10.1,179.4,43.8,262.6,155.4,17.7,23.7,40.1,56.9,52.9,92.2,10.7,29.4,9.5,36.9,10.1,46,.8,12.8-2.9,33.8-22.5,44.8-22.7,12.7-32.4,7.5-73.1-12.5-17.4-8.6-38.5-16.5-55.3-26.2-32.4-18.6-67.6-26.6-102.6-13.4-16.4,6.2-32.9,16-50.2,13.2-10.5-1.7-19.5-7.9-29.1-12.4-33.4-15.8-72.7-11.5-109.1-4.8-60.6,11.1-117.3,31.7-175,53.5-16.7,6.3-38.7,11-56.5,12.9-17.8,1.9-36.4-5.1-51.3-14.9-22.8-14.9-19.6-51.8-3.2-82.5"/>
        <path class="cls-7" d="M587.3,887.4c19.9-52.7,51.1-100.8,90.8-140.7,39.2-39.4,86.7-70.7,138.9-89.8,29.7-10.8,60.8-17.6,92.3-20,.3,0,.6-.2.7-.6.8-2.8,1.7-5.7,2.5-8.5.2-.5.3-1.7.6-2.1,1.1-1.4-1.3.3,1.3-.3,3.3-.7,7.6,0,10.9.1,14.8.2,29.5.8,44.3.7,3.7,0,8.1-1,11.7-.3.7.1.8.1,0-.5.2.2.6,1.4.6,1.6.5,2,1.6,4,2.4,5.9,1.6,3.2,2.3,3.5,5.8,3.7,6.3.5,12.6,1.1,18.8,1.8,38.5,4.2,77.2,12,112,29.5s61.8,42.3,86.8,70.3c16.1,18.1,31.1,37.3,45.5,56.8,15.6,21.2,30,43.4,41.3,67.2,8.9,18.8,17.7,40.2,18.8,61.3.9,18.6-2.4,37.4-19.3,48.4-6.5,4.3-14.3,7.8-22.2,8.3-8,.5-15.8-2.3-23.1-5.3-12.2-5-23.8-11.4-35.7-16.9-12.8-6-26-11.3-38.7-17.6-12.4-6.2-24.1-13.4-37.2-18.1-12.2-4.4-25-7.2-37.9-7.5-13.8-.4-27.4,2.2-40.2,7.2-13.4,5.2-26.7,12.8-41.4,13-15,.2-27.1-9.4-40.4-14.9-11.8-4.9-24.3-7.4-37-8.4-27.1-2.1-54.5,2.7-81,8.2-29.5,6.1-58.5,14.5-87.1,24-14.3,4.8-28.5,9.8-42.7,15-13.2,4.8-26.2,10.2-39.5,14.5-25.9,8.4-55.7,15.5-81.9,5-11.5-4.6-23.6-10.9-29.3-22.4-5.2-10.4-5.3-22.8-3.5-34.1,2-12.1,6.3-23.6,12-34.4.5-.9-.8-1.6-1.3-.8-9.7,18.3-17,41.1-11.5,61.9,5.4,20.6,27,31.1,46.4,35.3,11.7,2.6,23.2,1.2,34.9-.7,12.8-2.2,25.5-5.1,37.7-9.3,27.1-9.3,53.7-20.1,80.9-29.1,27.4-9.1,55.2-17.1,83.5-23,26.9-5.7,54.8-10.6,82.5-8.5,14.1,1.1,28.1,4.2,40.9,10.3,10.7,5.1,20.8,12.1,32.9,13,12.8.9,24.9-4.4,36.4-9.3,14.1-6,28-10.4,43.5-10.8,14-.3,27.9,2.3,41,6.8,13.6,4.8,25.7,12.2,38.5,18.6,12.2,6.1,24.8,11.2,37.1,16.9,11.4,5.2,22.5,11.2,34,16.2,13.2,5.8,26.1,9.5,40,3.7,16.6-7,27.6-20.4,30-38.4,1.7-12.2,0-25.4-3.2-37.2-6.9-25.5-18.4-49.5-32-72-12.6-20.8-27.1-40.3-42-59.5-13.2-16.9-27-33.4-41.9-48.9-24.2-25-51.7-46.6-83.6-60.8-33.8-15.1-70.5-21.7-107.1-25.5-2.9-.3-5.8-.6-8.7-.8-2.3-.2-5.2,0-7.4-.6-3.7-1.2-4.8-6.8-6-10.1-.1-.3-.4-.6-.7-.6-23.1,1-46.3-.3-69.5-.5-.3,0-.6.2-.7.6-.4,1.4-.8,2.9-1.3,4.3-.4,1.4-.9,5.7-2,6.8-.8.7-6.4.4-8.1.6-3.9.4-7.8.8-11.7,1.4-14.6,2-29.1,4.9-43.4,8.8-28.6,7.7-56.1,19.1-81.9,33.5-51.7,28.8-96.3,69.8-130.4,118.1-19.5,27.6-35.4,57.6-47.3,89.2-.3.9,1.1,1.3,1.5.4h0Z"/>
      </g>
      <g>
        <path class="cls-7" d="M668.7,868.3c12.8-10.9,30.3-16.2,46-21.1,16.2-5.1,32.8-8.8,49.6-11.2,4.8-.7,2.8-8-2-7.3-18,2.6-35.8,6.7-53.1,12.4-16,5.2-32.9,10.9-45.8,21.9-3.7,3.2,1.7,8.5,5.3,5.3h0Z"/>
        <path class="cls-7" d="M1237.6,872.6c-8.3-8.4-18.7-13.4-28.4-20s-20.8-12.1-32.2-16.2-23.7-7.4-35.8-10.2c-12-2.8-25.4-3.6-36.3-9.4-4.3-2.2-8.1,4.3-3.8,6.5,10.6,5.5,22.6,6.6,34.1,9.2,11.8,2.7,23.6,5.6,35.1,9.5,11.3,3.8,22.4,8.7,32.4,15.3,10,6.6,21.1,12.1,29.6,20.7,3.4,3.5,8.8-1.9,5.3-5.3h0Z"/>
      </g>
      <path class="cls-5" d="M765.2,996.1h364.2l18.2-250.2s-1.9-13.6-24-11.7c-22,1.9-366.8,0-366.8,0,0,0-11.7.7-7.8,36.3,3.9,35.6,16.2,225.5,16.2,225.5h0Z"/>
      <polygon class="cls-7" points="1129.4 996.1 764.8 997 764.3 981.8 1130.5 981.8 1129.4 996.1"/>
      <image class="cls-14" width="2482" height="3509" transform="translate(903.2 821.2) scale(0)" xlink:href="iletişim-1.png"/>
      <path class="cls-22" d="M921.6,624.3c.4,3.2.5,6.3.4,9.5,0,1,1.5,1,1.5,0,.1-3.2,0-6.3-.4-9.5-.1-.9-1.6-1-1.5,0h0Z"/>
      <path class="cls-7" d="M912.3,624.1c-.7,6.9-.8,13.8-1,20.7,0,1,1.5,1,1.5,0,.2-6.9.3-13.8,1-20.7,0-1-1.4-1-1.5,0h0Z"/>
      <path class="cls-7" d="M918.2,624.3c0,2.1,0,4.2,0,6.3,0,1,1.5,1,1.5,0,0-2.1,0-4.2,0-6.3,0-1-1.5-1-1.5,0h0Z"/>
      <path class="cls-7" d="M926.9,624.3c-.7,6.9-.8,13.8-1,20.7,0,1,1.5,1,1.5,0,.2-6.9.3-13.8,1-20.7,0-1-1.4-1-1.5,0h0Z"/>
      <path class="cls-7" d="M932.8,624.4c0,2.1,0,4.2,0,6.3,0,1,1.5,1,1.5,0,0-2.1,0-4.2,0-6.3,0-1-1.5-1-1.5,0h0Z"/>
      <path class="cls-7" d="M940.6,624.4c-.7,6.9-.8,13.8-1,20.7,0,1,1.5,1,1.5,0,.2-6.9.3-13.8,1-20.7,0-1-1.4-1-1.5,0h0Z"/>
      <path class="cls-7" d="M946.5,624.6c0,2.1,0,4.2,0,6.3,0,1,1.5,1,1.5,0,0-2.1,0-4.2,0-6.3,0-1-1.5-1-1.5,0h0Z"/>
      <path class="cls-7" d="M954.4,624.6c-.7,6.9-.8,13.8-1,20.7,0,1,1.5,1,1.5,0,.2-6.9.3-13.8,1-20.7,0-1-1.4-1-1.5,0h0Z"/>
      <path class="cls-7" d="M960.3,624.8c0,2.1,0,4.2,0,6.3,0,1,1.5,1,1.5,0,0-2.1,0-4.2,0-6.3,0-1-1.5-1-1.5,0h0Z"/>
      <path class="cls-7" d="M968.1,624.8c-.7,6.9-.8,13.8-1,20.7,0,1,1.5,1,1.5,0,.2-6.9.3-13.8,1-20.7,0-1-1.4-1-1.5,0h0Z"/>
      <path class="cls-7" d="M974,624.9c0,2.1,0,4.2,0,6.3,0,1,1.5,1,1.5,0,0-2.1,0-4.2,0-6.3,0-1-1.5-1-1.5,0h0Z"/>
      <path class="cls-7" d="M980.8,624.6c-.2,7,.2,14,0,21,0,1,1.5,1,1.5,0,.2-7-.2-14,0-21,0-1-1.5-1-1.5,0h0Z"/>
      <path class="cls-23" d="M925.8,560.7c-1.2,2.9,5.5,14.1,17.9,12.5,11.4-1.5,15.2-14.4,11.9-13.8-1.3.2-2.4.9-14,1.9-12.2,1.1-15.5-1.7-15.9-.6h0Z"/>
      <path class="cls-3" d="M925.7,559s3.6,10.1,17.6,8.9c12.9-1.1,14.1-10.1,14.1-10.1"/>
      <g>
        <polygon class="cls-2" points="1289.1 142.8 1260.7 317.6 1516.2 358.6 1553.8 174.2 1291 133.9 1289.1 142.8"/>
        <path class="cls-2" d="M1401.7,284.5c16.7-14.1,140.6-112.2,140.6-112.2l-240.2-36.7,99.7,148.9Z"/>
      </g>
    </g>
  </g>
</svg>